<mxfile host="app.diagrams.net" agent="Mozilla/5.0 (X11; Linux x86_64) AppleWebKit/537.36 (KHTML, like Gecko) Chrome/127.0.0.0 Safari/537.36" version="24.7.16">
  <diagram name="Page-1" id="u0bHgL9ryZXh9v7xUjcb">
    <mxGraphModel dx="1368" dy="874" grid="1" gridSize="10" guides="1" tooltips="1" connect="1" arrows="1" fold="1" page="1" pageScale="1" pageWidth="827" pageHeight="1169" math="1" shadow="0">
      <root>
        <mxCell id="0" />
        <mxCell id="1" parent="0" />
        <mxCell id="wTl5N8vqSqgQVyRXSi7D-1" value="Observation model" style="rounded=1;whiteSpace=wrap;html=1;fillColor=#333333;fontColor=#ffffff;strokeColor=#314354;fontFamily=Roboto;fontSource=https%3A%2F%2Ffonts.googleapis.com%2Fcss%3Ffamily%3DRoboto;fontSize=11;" parent="1" vertex="1">
          <mxGeometry x="440" y="360" width="160" height="80" as="geometry" />
        </mxCell>
        <mxCell id="wTl5N8vqSqgQVyRXSi7D-2" value="" style="endArrow=classic;html=1;rounded=0;exitX=1;exitY=0.5;exitDx=0;exitDy=0;strokeWidth=2;" parent="1" source="wTl5N8vqSqgQVyRXSi7D-1" edge="1">
          <mxGeometry width="50" height="50" relative="1" as="geometry">
            <mxPoint x="670" y="730" as="sourcePoint" />
            <mxPoint x="640" y="400" as="targetPoint" />
          </mxGeometry>
        </mxCell>
        <mxCell id="wTl5N8vqSqgQVyRXSi7D-3" value="" style="endArrow=classic;html=1;rounded=0;strokeWidth=2;entryX=0;entryY=0.5;entryDx=0;entryDy=0;" parent="1" target="wTl5N8vqSqgQVyRXSi7D-1" edge="1">
          <mxGeometry width="50" height="50" relative="1" as="geometry">
            <mxPoint x="400" y="400" as="sourcePoint" />
            <mxPoint x="570" y="410" as="targetPoint" />
          </mxGeometry>
        </mxCell>
        <mxCell id="wTl5N8vqSqgQVyRXSi7D-7" value="`x`" style="text;html=1;align=center;verticalAlign=middle;whiteSpace=wrap;rounded=0;fontSize=20;" parent="1" vertex="1">
          <mxGeometry x="340" y="383" width="60" height="30" as="geometry" />
        </mxCell>
        <mxCell id="wTl5N8vqSqgQVyRXSi7D-8" value="`y`" style="text;html=1;align=center;verticalAlign=middle;whiteSpace=wrap;rounded=0;fontSize=20;" parent="1" vertex="1">
          <mxGeometry x="640" y="383" width="60" height="30" as="geometry" />
        </mxCell>
        <mxCell id="-PGR5JDaOznDHEfc89nC-1" value="" style="endArrow=classic;html=1;rounded=0;strokeWidth=2;edgeStyle=orthogonalEdgeStyle;curved=1;fillColor=#0050ef;strokeColor=#001DBC;" edge="1" parent="1">
          <mxGeometry width="50" height="50" relative="1" as="geometry">
            <mxPoint x="670" y="430" as="sourcePoint" />
            <mxPoint x="370" y="430" as="targetPoint" />
            <Array as="points">
              <mxPoint x="670" y="480" />
              <mxPoint x="370" y="480" />
            </Array>
          </mxGeometry>
        </mxCell>
        <mxCell id="-PGR5JDaOznDHEfc89nC-2" value="`q(x|y)`" style="text;html=1;align=center;verticalAlign=middle;whiteSpace=wrap;rounded=0;fontSize=20;" vertex="1" parent="1">
          <mxGeometry x="450" y="490" width="60" height="30" as="geometry" />
        </mxCell>
        <mxCell id="-PGR5JDaOznDHEfc89nC-5" value="" style="shape=image;imageAspect=0;aspect=fixed;verticalLabelPosition=bottom;verticalAlign=top;image=data:image/png,iVBORw0KGgoAAAANSUhEUgAAAgAAAAIACAYAAAD0eNT6AAAACXBIWXMAAA7DAAAOwwHHb6hkAAAAGXRFWHRTb2Z0d2FyZQB3d3cuaW5rc2NhcGUub3Jnm+48GgAAIABJREFUeJzs3Xl8VOX1P/DPee6dmWwQCMjiBiquyE4SUVRCErCu1Rba2mrdbZUkQlWs1jq2LuCGJGCr1artr7XV77d1qxIyMdQFSAIKIoiC+8IeQpbZ7z2/PwC/oCFkuc+dSXLer1dfr76YmXMecGbumec+z3kAIYQQQgghhBBCCCGEEEIIIYQQQgghhBBCCCGEEEIIIYQQQgghhBBCCCGEEEIIIYQQQgghhBBCCCGEEEIIIYQQQgghhBBCCCGEEEIIIYQQQgghhBBCCCGEEEIIIYQQQgghhBBCCCGEEEIIIYQQQgghhBBCCCGEEEIIIYQQQgghhBBCCCGEEEIIIYQQQgghhBBCCCGEEEIIIYQQQgghhBBCCCGEEEIIIYQQQgghhBBCCCGEEEIIIYQQQgghhBBCCCGEEEIIIYQQQgghhBBCCCGEEEIIIYQQQgghhBBCCCGEEEIIIYQQQgghhBBCCCGEEEIIIYQQQgghhBBCCCGEEEIIIYQQQgghhBBCCCGEEEIIIYQQQgghhBBCCCGEEEIIIYQQQgghhBBCCCGEEEIIIYQQQgghhBBCCCGEEEIIIYQQQgghhBBCCCGEEEIIIYQQQgghhPg/lOgBCOGkX33AJ6QGraNtQhYx9bcNeG3Fm8HYYdr2Dk+aZ53/WGpI9DiFECLRpAAQXVLRcu7dOx2XIc7nemw+3mNjgGEjRbXhLR0jjscN1FsKX8bBb1ls/GnuWFrtwrCFECJpSAEguoxrPuD+cSP2k35B4xf9QjipLRf7tooZiIQVr48ZasGcUfS4Y4GFECJJSQEgkpqfWX3xUfR8sLqMwd8D4AUAn03IChEyI8rxnDED0bCJNyymG+8ZQ6scTyCEEElACgCRlPzM6ouN0R8w6E4AJx7oeSkWYUBQIS3m/FuZAYS8/HEQ9i/uG+OpcDyBEEIkkBQAIulcsSEyHURzwRja1tdkRhUGNCsY7Px4GEDQY61vVOYFD42mD53PIIQQ7pMCQCSNKzeGhzFTGUBndeT1pg0MajaQoWE2AABsYm7w4Z/bR6pLHyOKaUkihBAukQJAJB4zXfFRfBaY7wbg60woAtA3pHBIWIE0zAYAQNjghojHmnr3KO9yPRmEEEI/KQBEQl3zEWfG7fgTAP/AybjpccJhjQaUpiLAJnCDx5pzzxjPrXoyCCGEXlIAiIS54oPoKCi8BOAIHfF9ccIRTQqmredtzgCavPZbxmjjDD+RrSWJEEJoIgWASIjLN8TOJPALADJ15vHYhCMbFTyWvrd60GN/tCtsjJh3KoW0JRFCCIc5v4laiIO4cmPk+wReBM0XfwCIKcYXvWzEdN0LAJAWU8f08dqfzFzLWdqSCCGEw2QGQLjqig9jBSD+D/Y09HGL1yIMbTSgNE7Uh0x7KzcYQ/x5FNaXRQghnCEzAMI1V34QzQHxv+HyxR8AogbjywwL+uYBgNS4GoBMe52fWT5XQoikJ19UwhVXfxQ+jhVeAZCRqDEETcbWNL1r9dJidJS1ynpdaxIhhHCAFABCu8s+4RTLVv8A0C/RY9mZYqPRq7cIyIiq0259J3aP1iRCCNFJUgAI7ciKPQxgTKLHsdfmdL2LAglA75i65dfvxiZoSyKEEJ0kBYDQ6qoPIxcR49pEj2NfFgFb03SuBgAUE6VG1SI/s6k1kRBCdJAUAEKbK9ZzL5tUaaLH0ZJGr40mzbcCUizqHX/XfkJrEiGE6CApAIQ2ZMTuBPiwRI/jQLaksdZdAQCQEcEls97n4zSnEUKIdpMCQGhx9YbIcAaKEj2O1sQUo96ndxZAMVGvUPwFrUmEEKIDpAAQWlig3wJI+vvfO1IZmo4K+EZazDjhppWx0/VmEUKI9pECQDjuyo3hYQAcPd1Pl7hiNGheC0AAUpX6g9YkQgjRTlIACMcxq1sBGIkeR1vt9OlfC5Aeo+E3rY6O1ZxGCCHaTAoA4ahffsZ9AVyc6HG0R8RkhEy9JQAx4LXNB7QmEUKIdkj6e7R7zX5pxZGkjMmIUy7DOolBmbbNaQCnMpBqM7xEFAc4qoAIETUD1KgImwxDrbQNfiOl0bvUP314NNF/l+4sHI39mABfosfRXg1eRlpc72KAdIsn+pmVn0jvPQchhGiDpDwN0P/sWm9aFnKJMTkGzm8MRcc1Ra005s79SiMAhlIRw6AvDFKvKW/s8Tnfy6l1ZtQCAK7YEF0KoMt1wFM2cGy9qf0DUZdCV88ZRY9rTiOEEAeVNAXA3MXrDwWsnxAwFYTTAKTt+7jNjGDUQlM0hqjl3A8ogyjmMdUGUxl/SXl71IN+P8UdC97DXLU+dJRtGB8hid5X7XFEg4F0zbMATR5+93djjVFakwghRBsk9IvaX/VJSloseB6ILgX4LLTxlkQkbqMhEkU45uzxroaC5VHGez6D5t59/thnHAzdI1yxMXo1GI8lehwdlRVWGBDUuywmanD0N+ONLneLRAjR/SSkAJhbtfpwsswbwbgCQK+OxolaNupDUYTjloOj282jVLPXpIWp74y9TWYF2uaKjdG/g/GTRI+jo1LihKEN+jcvbEuJj7t/lPdt7YmEEKIVrhYA9776/lBl2DOJcA2AFKfihuMWdoaiiDl4a2AvU6lIisd4OqVXfYk/Ly/seIJu5IoNsa8APjTR4+goYuDYnab2rTH1KfyHe0YZ12lOI4QQrXKlALg7sGagl9W9DFwCjTsPGiMx1Iej6ORawRaZimIppnp4zgXjbnY+etd35cehIWwZnyZ6HJ01tMFAiqwDEEL0AFp/7Pj9rO6rWHeph9VaBi6H5m2HvXweDO6VihTT+b9W3GZPU9S6ada/V9b95vl3znY8QRfHlnl8osfghLChuyUQYDCS9oAkIUTPoa0AeCDwXnbaae9XA/w0gH668nybqRQGZKSiT4pXS/xo3Oq7Kx77z+zn367yv7Kht5YkXRFxtygAoi60xjJtytSfRQghWuf41x0z032L15XYTG8BPN7p+G3VO8WDQb1SYCrnp3OZgeZYfFJ9qH7zrS/UFjqeoAtiRrc48jbuQgNjjw3z1++za0WxEEK0xNEC4IGqD/rfH1j3MogfBuBxMnZHeA0Dg3qlIsXU860etzm1MYbyW15YWaYlQRdCoEGJHoMTYkr/LQAAUPF4t5gxEUJ0XY4VAPcF1p5ux+OrACTV/XFFhEPSU5Du1VOPMDM1Ra0ZNz6/cm3PviVgd3g7ZzKxXNoXY4EGupNJCCFa5kgBMDew7vtgLAaSc3ETEZCV5kUvn75JiXDMOqkhvOuz255fc4S2JEmNMhI9AiewWxtjmQ5xKZMQQrSo0wXA3MC664j5f+Hgvn4dCEDfVC/6pOgrAqKW3SdohT/0/2ftaG1Jkle3KABs7QcD70YW+ruSSAghDqBTBcDcxe/NJuaFnY3jpt4pXmRq2iEAADGbU+rDwdoeuDiwW3RLJLd6YxGkqZQQIqE6fOG+L7D2biKa4+Rg3JKZ4tF6OyBus9kcx6u3/WvVRG1JkgwDjYkegxNcWgMIgLe5lUkIIVrSoQJgbmDddWDc6vRg3NQn1Yt0r76+RJbNRjPilb9+5e2TtCVJBn6/Gl9amRNpCg5O9FCc4NYSAAJvdSmVEEK0qN1XwPsD637MzF1+2xsByEr1IW4zIhoOEwKAuGV7wyGquTXw8TH3FBy9RUuSBBg3b9FgZXimgngqMQoB7hduaEJKRtrBX5zkTOePk2iRZZub3ckkhBAta9cPnvsD6wqY+T8A9N1Ed5llMzY3hmDpOEBgD49h7Mjs23B4Vz1MaFjpK76+bE4kUlMBTAUwAt967ww4bggGHDMkIeNzUp+IwqBmvUtabDCOzlHmdCI9lacQQrRBm2cA5latPpzj/Ay60cUfAAxF6J/uw5YmfdfmmGX1a9rVuxLAadqSOCxnQeA42DQF4LMATAIhvbXnR5tCLo1MLzdmAOIGQnLxF0IkWpsKAH9VlUlx8+9A99y65DMN9Enxoj4c1ZYjHLNOnf3yO7fOPXfMPdqSdMLI+8vTfT5jAgEFIJwPGyeiHVviIsHuUQCkuLCXIQ5s159FCCFa16YCID024HdMOF33YBKpd4oHoXgckbi+n4ChcPz3t7z8bvmcc0eu1Jakrfx+dUr/00ezxVOZaCrAp2Jv++YO3A2JNAV3H5JAbi2j08PrQitAy6SN2pMIIcRBHLQA2HPff7Ybg0m0fqk+bGoKgzWtB7CZVTQaDfiZ+/mJXFpu9n9yHw4MtA0UEuMsAIW2zQN238nv/N/XjlsINTQhNbPrdgQ2GPDY+guAOPHz2pMIIcRBtFoAlL6ywRfi6ELqQo1+OsM0FDJ9JurDMW05opbdJ/TC208AuFxbkj2mPfus8fmm/qOZuIBgn8fABGJ9/y2b6+q7dAGQGlPatwEyGL409ZTmNEIIcVCtft/NrVjrJ+AOtwaTLL5uCCFu6/uBrog4PTXjhHvPOfFDp2NnzwscDYOnEmgqgMkAXLsi9zokC0PGn+xWOscNDCr0DeutdUMm77hjnNEt19IIIbqWA84A3Fe55hjY6BFT/9/WN9WLbc36dgXYzBSPBZ8H0OkmQSPvL09PSTXyYPNU7L7oH+teO5v9NdXVw47HoUx9DZZ0yojp/3eLGrREexIhhGiDA35Ts6XKiJL7gB9dUj0GUkyFsM4FgTHrxF+/tPLye88b92S7XshMOWVVI0H2VDCmAjgNNnyJuujvNzTLxq7N29H38EGJHkq7pcQJHhcWAEaI/NqTCCFEG7T4jXd/4P0JzPZStweTTMKWha2Nevv2+Exj+4MXjjvosbDjHqjqb3jtQgJP4d2NeJK27W56Vh8clTsy0cNotwFBhSzd0/8e3nLHWKPrVUdCiG6pxRkAZvu3bg8k2aQYBnyGQsTSNwsQiVv9f/3yOz+/99wxT+/755P8VWaob/wUkJrK4KmANQ5unlPTCc119YgGw/CmdZ3JIwLQO6p/netHW76m7HmLR9fOnLJKezIhhDiI78wA3Ld47WgQ3m7psZ4mFLewTWOHQADwGWrzgxeNH3zqgsohMdueAqapRCgAkKk1sUZZRx6KQ4cPS/Qw2qx3ROFQze1/o8rGy8tfh812jBhzmnbW3bXWP11f5ykhhDiI73zrEdHtkIs/ACDFNOAxNF8YLHvQ+U++/lHc5k8I9BgRfoAufPEHgPovNyMWiXaFCQsAQFZE/9t9447NsNkGAA8Tbk/Pyno7++FAtvbEQghxAPtd3e4vX38Ug7+fqMEkGwKQ4fVozcEAjsxIPRpdv+iyGXibCfdadnySx2t2iR0kGVFCSlzvP32MbHyw8Ts7PoeTwtKc0sDdw0pf8WkdgBBCtGC/NQBM1iXoIU1/2irNa6A+vLvLrS5EDK+hENW43kCTLcSosAmLPB6rYukvp35zxv0pG3h5M2JXATgugeNrFQHoH9L/dl+/7StYLfeVMAHcmgXvBeNLK69YUZxfo30wQgixx34/fe6rWLsewPEJGkvS2t4cRjCm9/C2+kgcH9YFteZwQAygpcRcTgaVL79+8jsgOmBpdPmG2FQCL3JzgO3RO6pwaJPeAqABUSyufrMtT7UIWBj3hX698trzkv6NIITo+r4pAOZUrjlV2eqtRA4mWQVjFrZrbAwEAIoIy7/epTVHhxA+BlM5sV1uhlNfe2v2xMb2vPyKD2P/AvGFuobXUQYDR+0yYGrs/c8AlmxcjR07drT9RYT3ifmK6uLC5doGJoQQ2OcWgLLVJYkcSDJLMfVPEzMzentNNERdOI+2dUECljIoQEyB6uLJnTq50Iyb18c9sdMADHBofI7oH1RaL/4A8HHT9vZd/AGAcSKD3swuq5hnxtJ/u2zWqd3jnGUhRNL55hvwvoq1nwE4MoFjSWpbmsKIxPXeBmiIWli/o1lrjhYwgHfBKIei8uYdO950envaFRtjeWCuAGA4Gbej0mOEwxsNrasud3EEgZq3OnvO4oc22VesKJoiM3NCCMcRANy3eN2xIHb8YJrupDEcw86w5m3bBNR83aA3x27bAa4AU7llxxevnHnWJt0Jr/wwchcT3aY7z8GYNjC0wYSpcb1ljBgV71YjGHTkVr7N4FLbF75N1gYIIZxkAgApnqxzlXt34PMYgN5lAND4mzQOYDmDy2FTeW39myvh97u65eCIY72//Xxj/DiAp7mZd18E4NAmQ+vF3yJg2cdrnbr4A4Ai0A1GJPWC3PmBK6tLCqqcCiyE6Nl2zwBUrP0HgB8leCxJjcH4cldQ63ZAAPh4Vxjbg47MNGwGuAKkXvIa3sCb152+04mgnTFtLXszvLGXCShMRP5BQYU+Gvv9M4AVX32Ez778TFsKJvwpXRm/WnJ9XpOuJEKInmFvAbAZwMAEjyXpbWkMaT0bAACaYhbWbe/QOoAQgP8SqDxO8UUri6aud3hojrjmI86M27HXAIx1M2//kNK+539t3Vfb3t/wwUEPd3LAp8z2VbUlUypdyCWE6Kbo7sCagR5WmxM9kK6gPhRFQySmNYcNYMWmNq8DWAugnEDlqb3U60suz9N8k8IZ163ljJA39i+3ZgKywgoDgnp/+Td4+YFFNe/cakR2zQL4dwC82hLuScuEP3mDKTe2d2umEEIAAD1Qvu4MW/F/Ez2QrqA5GsMOZ6bnD0gpheVf1R/o4Z0AAiCUExvl1cV5X2odjEZFG9jXjNhfAEzXmUf3xd8i5l2p6ro5I+iPe/8s9+HASFvhSXJnluMzBq6qLS4IuJBLCNGN0P0V713NoMcSPZCuIBK3sEXz6YAGEZb9X0MgC0AtmMthUPmQAXU1z02frncvooumMRu9N0TvZKJfQ0ML6oFBhb4a7/lHFIebvfaFc0Z5vtPtcNyjKzxuzwYojt5UXXy2K9tIhBBdH90XWPsAGL9K9EC6AstmfNWgdycWAVizvfkfzdH4v03LCiybdVad1oRJ4IqNsTzA/huYBjsRTzFwaLNCRlTfxb/JwxtiqWrCvSdSq51+JpRVjLCYngQwTttg9mDga4B+UVuc/5LuXEKIro/uC6x9EYzzEj2QrsCtnQCZKZ6f3X3emL/pzZJcrlnHg+NmfGFn2wb7LMJhTQpeS8+WyjixHfRi/l2jjVltfc0kf5UZzLJ/BfCdANw4+e85Ix7/RU8oHoUQHafAcGPVcrdAICjS3xY4ThiiPUmSeewk2vTn4zwXMVE+gA7tYMgKKwxtMLRd/Ju9/F69Tw1pz8UfAJb48+I1xflzbbbGA1ihZXD7m2aZ5nu58ysucCGXEKKLUmD0SvQguhJDb/t4AAAxZenPkpyeHOZ5zTY9Y0B0I4jb1KEwJU4YusvAgKDCgc8m7Ligh7/a7rN/cOcYY8R9o6jDCy9XlEx9L63OmADQLQAiDg6xJYOZ6Pmc0sCzOQsC/TTnEkJ0QQqEjEQPoish0l8BsG331Z4kiT11FIX/PMzzoG14jybgegCftPQ80yYMbtr9qz/F4V/9DKDZ5I93+uzz/GONw+8bbf7Libh7ZwNYqXEE1DgR8yCmwcZ7OWWB77uQSwjRhShAZgDaw4UJAADcx5U0Se6poyj8xLHeR44c5hkGRaeD8RiABo9FGNCscPQuA5kOL/SLGRxp9OLVrR4afuc445h7R5svO5pgj9oZk9em1hmn7ZkN0N2/YRAY/5bZACHEvui+irUR6N+m1G1sbw4jGNO7Ey/dYwTmfn9cQtrlJrtpX3DqsTvtGz1xfN9j4SSvTSmdiWcR7IjBX8UV3oib9p/mjPAscWiobTZhYdUwK249AcIZLqTbwuDraosLHZnREEJ0XVIAtNO2pjBCmo8FTjPNivsuHDtFa5Ju4qx/rP5ximk+069XH6SnpCLF44NXGTBJQREBTLBhI842LLYRseNoCoXQ0NyIxubmFdk/GZnrJ3L1YKQW+f0qt+/Eq5jwEIB0FzI+Z0WN61bemLfdhVxCiCRkAmgEINOCbeTGoYmksOvgzxIAsHP7th1sA1+j/ScaM2NnUlz8AcDvt6uBx8aVVlYawBMAn6k54zTDa52ZWxq4vrq44H805xJCJCEFQE4VawfbnWOTpQDooVYW539UUzQ5jxjXAujQqVDtMICB53JKA8+OKX1FtgML0cMo7J4BEG3EbswBECX86F6RQERcXVLwGFsYCaDKhYzTPPCtzSmtuNSFXEKIJCEFQDvZutsAAjDYkg5uArUzCz6uKcrP3zMboHmmjg8B6Omc+YGXTitbfKjeXEKIZKAAbEn0ILoSy4V7ADbTx9qTiK5hz2wAyBoJ4DX9+XBujNV7ufMD12jPJYRIKBPMH8KF5jbdgWXrXy9GAMhL+r/oRZdSUzT1EzAX5JZWXs2EB6C3f0dfJjyaUxo434jTtctm5X+lMVeLJu9cMKQ3YmdYCmObLGMwK/SOs5FhkG0ZjCYTVr2HeHMarOp0bgo81dd/wDO0hRAtM0H0QaIH0VXEXfj1rxTF7z177DbtiUTXQ8TVwGOnzKtabBv24wDna854jmXye7nzA7OrSwq0Hhn+4+0P5m81vVdtg+e0TSp18GvwmN88aLbyQuwumgc0PBU7wg5+PgCRykyK//kfmTdV6xyvEN2BCeYPZAagbdwoAExFsgNAtGr5zLxPwVzo0mxAHyY8mlsa+D5gXFNdnNfhsxC+bdG2GwYrFZ++Fd4rnzA8I5aofh1aYssAtsLr2aq8xwA4BsA1w+r/1DxMNb8yKNx421MDbt/g1JiF6E6U8nhkBqCNopobAAGAUuT6dKvogvasDTAVjWBGhe50DHyPYTmyNqCibsaIiu0z/mZQ/AtiPDyQoyNujX+Ix2KrMMZ2ZiZ/o0pPX4QB0/7mO+rDnJ0L1k7fOceNLotCdCnqxrzjtwOQi04bRCwXbgEwrdKeRHQbS2fkf1ZbUjAFRNMB6N4+mrlnbcCr2QvLj2jvixdvLT62YnvR87CxGsDFAIx9Hx/KQdwXX4ffxD9EJsccGXCMFGqMrJP+1zjiv+PqH9n44+YHxzgSWIhuYPdJKuTKXuMujRmIubAIUHnxZ+1JRLdTU5T/nGXFhzP4RRfSnUWWsSZ3fuAaMB/0/uHSL2amVmyb4SdlvwvwBTjImVpn2tvxp/gq5NrO1TMWCCtVn2NetAau/F7dvEXX8KNpjgUXoovaXQCwFAAHE7MtsOYeAObuBYD/1ZpEdFsrZ561qba48II9swG6e0nsng0oq3x13PyKIw/0pEVbikY1p8ZWgXAHgDYf3NSXY/h9fD0usz539ATOIBS9ag6cuniXsVVuC4ieTgGAUlSZ6IEku3Bc/69/U8n+f9F5NUX5z7FhDAfwvAvpphpELc4GVGwvutQweCmA4zoSmMD4qfUl/PH18LGzn79PVVr6f4zDlpy/68EHHQ0sRBeiAODG/JM+A/BJgseS1EKxuPYcplKy/184ovb6vM01xQUX7pkN2KE5Xe89swH/nbCwahgzaPG2ogcBfhpAp6faT7XrcK+1Dulw9jPYDINeokGzzthZusTRwEJ0Eeqb/0dw495hl2QzI+LCDACZqfO0JxE9yp7ZgJNB+LcL6U4H4qv/suE37xDxLCcDj7AbMCf2PlLh7E4cBuF1o/+ZpzQsXD2J/QfpOCBE9/JNAaAs9ddEDiSZhWL6t//5DLX53nNO/FB7ItHj1F6ft7mmqOCiPbMB23XlUYpx8cTqtEOz6kfpiH8CN8IfXw9Tw4Fcy9F3ZHPDIWv87FcHf7YQ3cM3b/Ybp564EsCaBI4laTVH9U//+wxDCjChVU1R/nNk42Rm/K/TsQmM72e/gxMO2+x06P2MtXdhZvwjLbFrqe8JlfVZsghX9Bj7VbvM/LdEDSRZxW1b+/S/UsReT8ZdWpMIAaD6hoIttSUFPwToYjg4G1Awcj3GHfO5U+FaNcXeigtsPYXGG0b/iVN2PizFuOgR9isAPIbn/wEOr7Tp4oJRC6xhynFfKaaxzn/2sQ1akwixj5ri/Gecmg04/tAtOHO4uw1Fr7U+xdF2s5bYVar/z6bVPXSxluBCJJH9CoBZ+cd/BeCfCRpL0mEwmmLOdCQ7EAJgGupXWpMI0YK9swHM/COAOnQAVWZaCD845W3XjxPxsI1brA1a1gPESOF1s+9TP90x93DHgwuRRL6z4IVh3w1A/5L3LiAUtRDX3P7Xaxqf3XPu6HKtSYRoRW1J4bMxRIYD9Gx7X3tBziqkp0R0DOugjuIgfmh9rSX2Fvg8G1S6fC5Ft/adAmB24Yj3CeRGA5Gk1xDRezeEAKQYJL/+RcK9U3z2tpri/B9B4TwG2nRVHX7E1zj+0C26h9aqn1pf4BDWU4DUGlkn/XDn/ZdrCS5EEmhxywsz/x7QfOM7yYXjFqKW3u1/XlNtuvv8sY6vyBaio2pmFLxMCiPB9PfWnucxLJwzLvGbhlJg42e2YycU74cB1Kq+C6Q/gOiuWiwAbp4yfBUI/+P2YJIFA6gPR7XnSTHN67UnEaKdamYU7Kgpyf8pMX8fQIvL7XOO/RSZaSGXR9ayKdZWDOawltifUVpa2q5ed2sJLkSCHbDpBRvxWQQ0uTmYZBGMxhDVvPUvxTRW3n3eaDe6swnRIdUlhS9ELeNEJjy2758bysapx29M1LC+wwTjB5rWAgDAe+hTJA2CRHd0wDf17LxRX9qg37k5mGTAzKgP6135r4iwcVdkttYkQjhg1cy8+tqigmv3XRsw5qgv0Cc9OX7971Vob0OaprXLn6vU1Ld3ZsrnVXQ7rVa1IXPLPCKsdmswyaAhEoNl613+sCMcx9cNwf/JLa2cojWREA6pmVHwcswyhhPw1PhjPk30cL4jDRYmWR3aydgmn1LKL7UFFyJBWi0A/Hl5cUD9Ej2kOVDUstEQ0f/rf0NdMwD0YfB/cucHZB2A6BJWzcyr//2PX7zniP47k3KB8CTWd+jhetXriIt3PjBEWwIhEuCg97VuKjhxGYDbXRhLwtUFI2CNX22KCO9u229zggqYAAAgAElEQVRZhcmEBbnzAwsn+atkpbFIeor4Z9i9gzXpjLJ3IZP1FPBRUqiDcaeW4EIkSJsWttxUcNJcEF7SPZhE2hWOIWrpXfj3RVMEwRZOFmTCdc19rVdGz6vqo3UAQnSSTXxWosdwIAqMMbxLW/xNSM3XFlyIBGhTAUBEbMZxGQB3TvtwWThuoUHzwr+wZeOrhgNvVSJCoc+wl40rrTxG60CE6KA3t93ci4CxiR5Ha3QWAJ+otMOm8bOGtgRCuKzNW1tmnTW8jkE/AhDUOB7XxW3G9uaI1gN/iAhrth784BIGn2CAq7NLF5+pbTBCdFAIoTMAJPWtqhNsfTuXG8gk7Pr8Qm0JhHBZu/a2zi48aTmBpqObLApkZmxvDsPWeONfEWHF5sb2FBj9CGpxbmnFFdoGJURHEI9O9BAOZggH4WV9t/IaYRZoCy6Ey9rd3OKmwpP+w4TL0A1aBW9vjmi9728owuqtjbDsdufwMuiJ3NLA/GnPypSjSBZ0fKJHcDAGGIdDX4+CZjZO1hZcCJd1qLvV7ILhf2NQl22MwQB2BCMIxfX1+leKsGZbE0Kd6CjIQPFnm7P+PWlhVYaDQxOiQxic9AUAAAxgfW28d5FHtgKKbqPD7S1nF550PwNF6IJHB+8KR9Ec1XcXwyDCuu1NaIo6UmCc12xZS0+ZVzXUiWBCdBQBhyV6DG3RX9PpgADQRIbs1BHdRqf6W88uHL6AYU8DoOckDocxgPpQVOuKf6UUr97WhIaIc7MLBIywDas2pzRwumNBhWg37p3oEbRFBvTN7EVgeLQFF8JlnT7gYnbhiH+RjXMANDgwHm0YjLpgRGunP59Hbd7UGM8Oxez1GsL3B1CRO7/yEg2xhWgVMwig9ESPoy18Giclw1BJvQtCiPZw5ISrm6YOf43IPp2BD52I5zQGsL0ponXaP9VrvtUrmjrkuctOWanisdMAvKYhjY+Jn84pDcyBX04nE+5Z8ullPjj0faGbR2MBEIXqEv8GQrSFY2/mmwpGvBsyMQ7A35yK6QTLZmxpDGlb8GcQ2b1Tvb+9/4KxE/3Th0cBYNmss+rS6oypDCzUkJIAzM7JmvjPcY++lKYhvhDfMWnoUxFA49y6g2Ia6xQv2V3i30CItnD0k+LPG950c+HwnwH0cyRBw6Bw3MamxpC2rX5eQ+3q7Ukbf8+5o3//7ceW+PPitcUFM4hwA/R8cf7QiKa+lb2w/AgNsYXYDxEYwMG7WSWBiMYCIIUtKQBEt6Hlk3Jz4Ul/MUiNARDQEb8t6sMxbGvS0+SHiDjd63mudzx1wO8vGP5Oa8+tLiqYz4xzATjfo5QxGpaxPKds8XjHYwvxLZzk63z2atDYrNAHjXsMhXCZtlL5VwUnfnhz4fBCsvl8uHiGQMyysbkxhIZwVEt7X59pbOqXao6de8GY6Xun/A+mtqRgkc3WRACfOj0eAg4FqyU58yulRanQioAvEj2GttimvNpi9+bYTm3BhXCZ9gUtN009+SVONU4m4H5ovC3A2L2/f3OTnil/r1LNmSm+kgcvHHeo/5wxq9r7+hUlU9+zokY2GK87PjggHcT/mzO/wg/mpDyqVXR9BP4g0WNoi23waYvdm+OfagsuhMtcWdE6e+IJjTcVDr9ZmeYQBu4EUO9UbAYQjMXxdUMIu8IxOD3j7zVUQy+veVfvi8b1vvu8UaWdibXyxrztdRSdAuAvDg1vXwSiO7IXVP59wkNLUzXEFz0cg5K+AIiRwpek7+2fAXuNtuBCuMzVLS035h2/fXbhcL8VsY4G4w4GNnUmXjhuYUtTCNubIx3pt39ABMBrGNsyU3wlD100PvPeC8be7idyJMHG4rMjNcUFP9+zONDxqQpi/Ngyg5W5DwcGOh1b9GxM9Haix3AwnyINceibBEtX0Ve1BRfCZQnZ0/rrc0fuvHnK8N+F3jrpcBs4HcBjBLT5HM9Q3MKWxhC2NoUR7USv/W8zDRVJ9Rr/7eMxznjoonEDOvuLvzXVRQXziXg69NwWmcAKK8aXVozREFv0UJFI5E0A+vrsOuB91Utb7L4cs4f3bpYCQHQbSXO/eO6b63shHL+IWE0FOA/AoH0ft2xGcyyOpkgMcdu5eX6voRqVojU+RQvuPn/sM44FbqOc0tdGAfaLAI7UEL6JQRfXFue/pCF2UshdEChkG4s78lpmVNSWFExxekzdWcW2ojdAPDHR4zgQv3k83lL9tMQeY+/69J0+vzxKS3AhEiBp2lrOnnhCI4Cn9/wPc15bO1xZmGwxF9SHoxODUSuLO3mD3yBlGwqNplIbTeKX03386G1nje/UbYjOqimevPq0ssUTYqyeB5DtcPgMAv87p7Tytpri/LkOxxY9EJH9CoOSsgCIg7BaZWqLP8iOLNIWXIgESJoC4NtumTx8LYC1AMoAwF9VlRLelTnRUOr0OHgkM2eBkc7gNGbuZTP5iBAjIESEkCJqspkbSNHnJqtl0Uik6oFp4z9J7N+qZW8VTfl60pNVZwQb7CdAfLHD4Q2A5+SUBoZZvj7Xrbx2vL7DEES3NuGhysPmv9x4RtE5AVDSzB3+nxWqD5o0faWlwMJhMfi1BBciQZK2APg2f15eGLsbCyWsuZBOSy7PC4P5ZzmlgQ0g+i2cvz1zlRGpP2FM6SsXvVN89jaHY4vuzO9XOVmnX2eB797SkNH7k639cfTA7Yke1Xf8V9PUPwCc1BxqWv/vcdIESHQrcrBFMiHimpJCPxN+AiCkIcNEDzxLx5WVn6AhtuiGsuctHp2bNXEZwGUAegNA7cahiR1UCxpg4g3qry1+5ru9M6JWZE1OWcVUbUmEcJkUAEmotqjgnwSeDGCL89FpmMHG0uz5i/Odjy26iwkPLU3NmV/hJ0NVM5Cz72NrPj8MOxqT62TgV42BiJCer7NjoiE0f9AfYBwGplezywKPTlpYlaElmRAukgIgSVUXFy4nGOMBtHrWQAf1JVKLckorZ2iILbq43PmvnW2ZwXUgugPAd/rqMhPeWHdcAkbWsigpvKAGa4t/5Lv7NRYiYlwTtKx3sx+uPENbUiFcIAVAEqsuzvsyzTDOYPCLGsKbAJdllwUeneSv6jJrQYQ+4+YtGpxTWvlPJvs/AIa29ty3Pz0S2xqS40fwyzQI20hP///jI0E0vzegpYeOIsWvZZcF7hnuf1bf4QNCaCQFQJJbcn1e09BBOy8CoGUbHzGuCWZZL497tELf/imR3Jgpp7TiUsMw1wA8vS0vsSzCyytG6R7ZQTXBwDPGYVpim2AMfrNPa08xiPHr9KysmgllFSO0DEIIjaQA6AKemz7dqikuuAWEqwDoWIk81YioN3PKyqXJSQ8zoaxiRE5Z5VsAPQ2gXcvoN24+BO9+drimkbXNk8aRqCePltg5W0MIftFqAbDXKItpZc78Cv+0Z581tAxGCA2kAOhCaooKniDmfIA0bOPjk8FGbXbp4jOdjy2SzYSHlqbmzq+812JaCWBCR+O8UDsS9c1pDo6s7d6nDLxsDDr4EzvgyHgIHGhXceMB0R2fbc5akj0vcLSWQQnhMCkAupjqksI3LWACCO9rCN+PoMpz5gd+riG2SBK5pZVTLE/wPSa+BUCnfj6Ho178461sWLa7XyVhKNxnHgtbQzfzVFg4qqovrGiHlsZMJAOrc+cHrpGjuUWykwKgC1pZnP8RcfQUEL+iIbwPhKdySwPz4ffL+6MbyX04MDBnfuXfGFwOhmO/Ur/Y3hflq4Y7Fa5N5pnHaDn2lwCc8h4j9FXvzoTJYMKjuWWV/xk3b5G+7QlCdJJ8wXdR1cVnN6TtMC8AUZmO+AwU5/Q77aXT5r6p73g14Y49i/xY4T0NraYBAG+tPwZvrh+mI/R3/NM4DK+pQ7TEPuOzCJpXHOpILAa+ZxjmmuyywI8cCSiEw6QA6MKW+PPiNUX5xcS4FkDc8QRMZ8dSw2+Om1+h46RC4YLc+YuPzSmrDOxZ5KevVR6ARW8Px+pPD9faLvd11Q9/NvS8HU/bEkSo6ginw/Yjxj9ySgPP5iwI6OtVLEQHSAHQDVSXFDxGoHMA1GsIP9IgWp79cMDpkwqFRpOerErJmV/hZ1JrAEx2IyeDnnv1nROPBGOejvg11Bf3msc5ft+fwJi0uTkee3Woo3G/ZRpsrM0urTxPZxIh2kMKgG6iujh/MRRyAXyoIfxgUng9uzTwUw2xhcOyH648I9Rov7Onk59Pe0LCxyA+q6a4YHrl1RdsKTxkwSwmvgNA587v3sdSlYU7zeMRd/jib4BRyNv+0vifI44E8B9Hg3/XQAK/mFNa8RdpJSySgRQA3UjNjIIPoXAqA0s0hE8h4K85pYE5sro5OU14aFFWdlngUVK8hMFuHPgUI6A0HLZG1hQVlu/7wJR+C38H8IUA6jqb5FU1AL8zj0fU4V7/WRyxf8CbZi3OvOHnK2eetammKP+8PbfTmh1N9B10ibQSFslAvsi7oeH+Z70ZWVmPMnCZngz0rBFPvWzZrFN1nFjYLrkLAoVsY3FHXsuMitqSgilOj8l1zJRTFrgEUA8ArGd13LcQ+C1bGdfWzpi8trXnvbrzhqGmFf8HgNz25oiD8Kg5FM9r6PM/nBu3jYw1nvFM/xvXf/ux7HmBo8nA0wAmOp54fzYBC3YgevPG4rMjmnMJ8R0yA9ANrfVPj1YXF1xOhBsA2M5n4OmWp7kqe2GVni4sos0mLKwalltWuXj3Ij9XLv71RLihuu6tMw528QeA7/V9+NO3+vU/FaCfA9jR1iRfUwpmeUY4fvHvi5h1nr3pD+/1vnZgSxd/AKidWfBxWp2RB9At0NN5cy/FQHEWfCvGl1aM0ZhHiBbJDEA3lzv/tbOZ7Gew5yx3RxG+IltdUF0yeaXjsduop84AjHt0hceI7JoF8J1w4z4/ADBeNiz6xbJZ+V915OWBLSUDbTN+JzFdhgOM2QbhJTUQT5hDEIJzXXVTyObx9q7qwbHID5/rP6vN459QVjHCAv0FjNGODaZlMTDfM2Twzt8/N326pTmXEACkAOgRch8OjGSFFwEM0RC+CYRLaooKntcQ+6B6YgGQUxo4HcAfAZzkUspPmHFdbUnBIieCVW7/xWE2e24E8VUAvlkM967qjUfUUfhIpTuRBgCQwXEeaze8cbjaedXfM2/f0JEYk56sSgk2Wn4ANwIOViUtWw6Fn9fMKNCxmFeI/UgB0EOMm7dosGmYzzOQoyE8g/l3NSWFfg2xW9WTCoCJj7zRN2JF5hDjarjz2Y0T8EiqYdy25Pq8JqeDl2++MZ3M0EVbKOWq+eaw01dQpiN/J5NtHI+mzUM4/Ne+lrrrb/2KG5yImz2/8lQi+2mAdHc8ChHh19Uz8ktB5NhOCiG+TQqAHmRY6Su+fux9nAk/05Tiz811db9c65+utRnMvnpKAZBTVjkNzAsAtHg4vdMYeFuxusat2zs/qJ93dBPourpQ2qXbfcYhXxgpiFPbvp7SYWFgLIpB0djn/dOCfxoQVn96fOANW3SM87S5b/aKpoUfcKcI48UE88rq4rwv9eYRPZUUAD0NM+WUvXYzwPdAwyJQAr9leOyLlv5y6lanY7ekuxcA40orjzFgPwKQW+PcRYQ7jhxYtyAR96JzSwMPMPArVgxfvyA8/cNARgyW1wJMG2QDKmYAMQU0eRDbmo7ozpTdL2b8qqak4CE3xpk9P3AWCE8Q4Ezf4AOrJ6bi6pL8v2rOIxx2yryqobZhTQVwDJhMwP4EBpUn0+2dDh13JbowIq4B5uaUVX4M5qcAOHqWK4NOi8eNZbmlgfOqiwvWORm7vbymB8o0EA6HEzmMDhn36AqPGa2/jpnvBsi5m+KtYbzMpnVdzfVTv6h2JeGBkU2IbktHdJs7f/X2qi0pWDR6XtVwr2EtAKCzQVYfJv5LTmngPCj8smZGQZt3UojEOK1s8aFxVg/ZsKZh748sYgAE2EBOaWCRbasbVtww+YOEDhQyA9CjjS+tGKNALwJo18HnbdQIhYtrZhS8rCE2AOCuVXzYVw11fjtqXdUrNRWpphc+MuCBwrfvnDIBFhhx2AhaUTRFwwhFo18MHDToyntGUIWuMXbE+LLFpylWjwJw54g9wlfMXFxbXPgvV/K1Yu8MQIde7OIMwL723J75I4Aszam2MOjq2uL8lzTnER2UU/raKMB+FcDB9q/uYuCHtcUFATfGdSBSAPRwEx6qPMwy+QUA4zSEtwC6raY4f65TAa/aED2lf0j9Jj1KZ3ptynBiiZRFbEUMfBY1sNhrq9/7x9LXnY/afqPnVfXxGdadDMyAOz064gQ8YoZSfvPW7ImNLuQ7qK5YAABA9sKqQWRZjwM4R382/muaYV6nY2Gm6LhT/1A+IB4zVqLtP6jCDJyXyCJACgCBkfeXp6f4jP8H4Ps64jPhMdvbZ8bKa8fHOvL6yzcGjyD2XALwJQBOIAC9Igr9wgSf5exb2AYj5MGnEQOPp4xUc/1Ezp+y2ILs0srziPgPYBzmRj4A77CNa2tvKKh1KV+bdNUCYHd+ptzSyquZ8CD22d6oyads089rb8h/XXMe0UY5pYE/Ari2nS8LKuJzlhcVLtEwpIOSAkDsxkw5pYE79hwgoyE8KmK2MX3VzLw2n1h49YbIcAs0G8BPcID1KpkRhUNCCqaGfocxxfGgSS95Mugy/7HkyFayb9vTdnYhgLN0xG9BM0C/HzJoxwPJ2HCmSxcAe+z5b/oUgNM1p5JWwkli0sKqjKBlbQOQ0oGXN7NNZyeimJNWwGI3It69j58uBuD4qjkiFHoNq2b8w68df7DnXrE+fPwVH8b+ZYHeBXAJWlmsustn45PMOHam2M4dPbeHxyYzM4oLPfW849Z3rKf9zI4tmp3krzJzywIlZGA13Lr4M162mE+qKc6fm4wX/+5iTyvhye61EvaulFbCiRW04meiYxd/AEgnxS8m4sh1KQDEfmqK859hpnwAOrbxHauUvTR3fiCvpQenfcGpV2yI+GGo1SC+EG18f1oEbEmz8UVvCzHlfN8Ujw2zT5QuNd6262evjl/a2XinLKgcG8yyljPjYeifKgYDXxMwraak4LyVJYWf684ngCX+vHhNcf5cg3g8CKs0pxuuQNU58yv80559VnenQtESUkd0MkImKZS7XchJASC+o7YkfylbmABAxza+LCYszi4LXLfvH16xMZbXKxJbB3T8DPugyfgk00KTV8P9AAC+OKVnRdTTt78Te9u/gdt9tsK4Rysyc0sD822ba6Bn0eW32Ux4zBtKOaG6uOB/XMgnvmVZUeGatAxjAoC5AHTOunhAdMdnm7PezFkQOE5jHtESG06sFeqrQIsnlFWMcCBWm0gBIFpUO7PgY08o5RQwdGzjM4mxMLc0MH9SVZV55YbYbDBXgDG0s4FtAr7KsLEtTU8RQAz0ihpjjAbedPPqWH5bX5ddWnmeEaH3GCiG/n7yALDaBk2oLSq4NllW+PdUSy7PC9cUF9wChdMB3qg53SmwsSq3LFACZlnj5RKlbKf+u/a3mCrGlZWf4FC8VkkBIA7ordkTG4cMrvs+dv96cZzyeIoH9xq5mcFz4OBFkQHsSLHxdbrz6wL28sWRlhUxKm5915rT2vMmPFR5WG5p5f8SWFe/hW8LAnTLkEF141YU59e4kE+0Uc2MgmWWLzyKgFJA21sTAFKZ8XB2aWV5bmmVG++5Hq9xx86lAHY6FG6gYqMyd/7iYx2Kd0BSIYo2yS6tuJpACwF4nIhn+rw4KnsEfL30dnpLixGOaDK+0xjISQ0+/Ouu0eoH+/7ZJH+VGepnXc+Mu+DCfX4AAONl06AZS2fkf+ZKPg26wy6Atsgpq5gK0BMubPvcRYybq0sKHtOcp8fLLgvcTozfORjyC5B1Zk3R1E8cjLkfKQBEm2WXBgoIeBZA387E8WWkYWj2CHhS3DnGPj1OOLxRbxHQ5LOX/260OQH4psPiYwDG68u4n00A31JTXPgXl/Jp01MKAGBP4ydllWk8nGtfzznZSpinPpRlx2KXks2TYNvHs80DYXEqAIOZDSKyWFGcwBGYxiYyaCMzV6nMlCfp+Zlt3grclQwrfcXXD97XHT5x9XNlGWcun5n3qYMxvyEFgGiXcWXlJxisXurokai+9FQcdcoomF6v00NrVUaMcJjmmYBGr11d/saSJXDn3Hhg9yK/xxVHb6ouPltLnwK39aQCYC83WwkrUtcsL5r8YkdezBc/0hcx+8ccjF7L25tGwe7Ah4kA8po72WuUK1/sN/Tq7R91ZCzJ6rSyxYfGmP7r7JHRvNFDfOZbRVMc71AqBYBot5wFgX5s438ImNSe15k+L46ZMAaeVHd++X9bVkRhQLPeZS8bm7Zh1do1WnPs8S6Br60uLlzuRjK39MQCANjTSjhu/QmEc/Vna18rYf7JIyNty7qFQBdh7w6duAXUBcHNnWhzQACleD4nn3kjVdz8XMcDJZfsheVHkG0sAeNoB8N+aFnxSStnnrXJwZiyCFC0X82Mgh22r88UAI+39TWGx9w97Z+giz8A1Pls1Pv07A7Ya1jGITj+GK1rd5oBvjmtzhjX3S7+PVnt9Xmba4rzzyfGtQA09/inS4KWtSa7dPGZrT2Lpz1yvD19wYts2asI9BPsuz3XNIABvUCHZgKeDl5GGOBQ7Ei7PvSsNfHuzZx3z9kdC5Rcaq+f+oVlcx6ATx0Me5xpeF7LfTgw0MGYMgMgOie7NPAr2r1LoNUp7yPHDEfvQf1cGtWBEYAhuwykOHyGwL6YgDc+WoOt27Y5G5j4FRU3r9d1PzAZ9NQZgH3llJUfBTaehv5WwkxA2bdbCfO0h1Jt5buNmG8CcPB7dTYD25s6NxsAAARwqneZkeI7l8pn1XUuWOJNWFg1LG5Z/yXgUAfDroZCvlNrOWQGQHRKbXHBg8w4F8CuAz2n39DDkuLiD+zee/V1hg2dO6SJgZxjhsPrc2ydwyZm/lFNUeE53fniL3arKZr6yZBBdXkutBKmva2ET1lQORbY/aufybuMmG9DWy7+AKAIGNAL6JfeuZ+UDFAwOsFuDH7NU++/oBORksKy6/M2kkIeACen7UeBEZj4yBudWoi9lxQAotNqSwoWGcSnA/jO9rPUzAwMOv6oBIzqwKIGY1uq3lsBKaxwysmd7uppg/mPUcs4qbak8FknxiW6huemT7dqivPn2myNc6OVsG3z8j/e+Mw/mewVAEZ1JAj1TgEO6dX5eeWY5bPqg89bk+d0+dmcmhkFHxrEUwFsdywoY3Q0HnnltLlv9upsKCkAhCOWFRWuIRu5AJZ984dEOPTk40Aq+d5mdSk2wobOXizAADMdRw0Z2qHXMrAGChNrSgp/2Z4TFEX3sqJk6nuWt08OmO+ExlbC527Z5bnyi7rp6GTPCkr3OlIEkA2gMTLTzrv3hc5FSrxlRYVrAFUAwMnbGqfEUsOLJi2s6tR/r+T7ZhZdVvUNBVvqEM0D8BcA6HfkoUjt7U4PnI7Ykq53FgAATh48FIbZrkMEQ2C+M1hXN75mRsGygz9ddHcrrx0fqykp9O9uJYwNTsf/yVc78ZsNm2CwMwWxU0UAAHBT9Hx70hwd7chdVVM8ebUNLoBz3QIB4NSgZT8/4aGlqR0NIAWAcNTG4rMjNcUFP0/NzPjtgOOGJHo4rQqZrO3goL18rDD6xJPb+GxezBZOrikp9K/1T9d571d0QbtbCYdGO9lK+KxtDSj6ZIsTofZD6V5QZoevS/vh5sg5Vt69TzkSLIFWFBe+A4VzADh4Ngfnx43gC5OerOrQUcRSAAgtjjl1bFY7f/kmxLYUvbcBAGBIel+kpLb6+dwC4p/WFBdOrZ1Z8LH2AYkua+W15wWriwtKQPw9EL7qTKyxu0K4/cNN+i4CfdNAqY50Dgeaoj+38u6d6UywxKmZUbDMJvt7cHCrJxEKg43Wv4eVvtLuPdZSAAjHXfo+9wNwVaLH0RYRk9Hk0TsLoJhw8rATW3qIAf6rFTVOrikq/LvWQYhupaaosByEUQA61ECnb8zCnR985di0/wENyABMhy4zwdgDnH//SGeCJc6KoilvMXAhgLCDYc/KIu8zk/xV7frVJQWAcJzHiM6EWwfgOKDOhVmAI9L7wLN/++N1AM6sKS68dOWNec6tEBY9Rs2Mgh01xQXTQfxTtPPe8q0bNuGQqBNH2B+EUkCWQwd+2aw4EqtwJlhi1RYXBAh0AZwsAhgXBrOsdhUBUgAIRxVtYB8T/TLR42iPkIcR0bwjwGDCibs7BIYZfHtzXd2YmuKCN7QmFT1CTVHh3404jQB4cVuen7ejCafXaW42uA9K9wIpztwO5EhsgDV5zv2OBEuw6uL8xTbRRQAiB31y2/0wmGU9Ab+/Tdd2KQCEo4KIng/9h5o4igHs8uqfBTg8s79lkTWmtrjwLlnkJ5y0bFb+VzVFBWcdrJVwisUo+dj5RX8HQ30dPPY7FJvJ37vnEOcCJs6KovxXGXwxACenYy7N7nva420pAqQAEI6yoS5J9Bg6osHHziyrbkUaG0bhGZOHak4jeioiri4peAxkjQTj9ZaecsGWegyKxNweGZBi7p4JcELcNjhkPOZMsMSrLS78F4gcLQKI6PKcrImPglvveSoFgHDMNR9wfwKflehxdERcMcKm/lkAr02/1p5E9Gg1RVM/GTK4bjIxbsU+rYRNZvzk68S12OdeHdqp1nKscOR8PudeR9rhJoOaovznwLgKgJMrkq/KLq2c19oTpAAQjokZ0XwADu37cV/Qo78A8Ng0VnsS0eM9N326VV1ScC9bdi4DawAgb0cjBoUT8Ot/D0rxOLcjwGJlh4x7nAmWHGpKCp4m8NVwqMcDABChJKc08OCBHpcCQDiI8hI9gs5odmMGwKKM29ZxcndIEt1G7cwpq2xfn3FgvvOcLQ363+CtIYDSnTsOnCLxaY4FSxLVxYV/BnOJw2Fn5cyv8Lf0gPHZAaEAACAASURBVBQAwjHEmJzoMXRGyNS/DoAYQNzuEj0SRPew8trxserla/+QW9+sv/f1wfRyrgDgaKwfF84b7VjAJFFTUlhGIGebHhHdkTO/8rZv/3Hyt2oTXcIlG3kAOHZsosfRGUxA1GT44hrPCgZgWPYUALdrTSLEviyjkMBGoocBjwGYBhB35lyjVX08j+aUVv7LkWBJhAEQaD2DT3AsKPFd2aWBcG1xwTe3BKQAEI7w2vETWl9v2jWEDRcKADaO1JpAiG+xQXnJ8vGkFBPc5EwB0K8pmgNwjiPBkoyO2UgC7s8pC9TXFBU8AcgtAOEQVnx8osfghKgLnwjT6lp9EkTXR8DERI9hL/Y597tzYEPQsVg9BIGxMLe04hRACgDhFEa3KABibhQANrz+FZymP5MQAE/zewEcnehx7EVe5woAM2ahV8yFlsbdi49Bj4CZpAAQzmAclughOCGuuSUwsPuY9KAZa+sZwUJ0UtYwJNPtXqe2AgIAA+O2u9fWuBsZk7Ow8hwpAIQjCNw70WNwgjN3Jg+OoQa4lEr0dERHJHoI+3GyAABwzK6Qo/F6DBsXSgEgnKGoV6KH4AR26RNhKqNb9DIXXQCr5PtsKueWJPaWWwAddZoUAMIRzF3n+N/W2OROrxSybZkBEO5QdvIVAORgAeDGscbd06FSAAghhBA9j1sTnqK7IzrwEaRdiXKpmQErtdWVRELYqjHRQ/gOdm6mrcHBXQU9zCYpAIQzbE6+L5kOIJeapcZta5s7mUSPR3byfTZtBwsAjxQAHcJ4UwoA4QgGNSR6DE5wYRcgAIBgywyAcAfzF4kewn7izlbZH2WmOhqvxyD+txQAwhEM/jLRY3CCx9Z/C4ABpMU972lPJAQAoG4jgORZKefQOQAAAAJW9u8W64/dtrKmqOAVKQCEM4g+SPQQnOBx4RZATHHUP56kh6lwBT3njwL4KNHj2IujzhUAcY+BRrkF0F4RG3QdiGQRoHAG292jAPC6UADEFer0ZxHi/zDRm4kew14UcW4yYrNM/7cXE/i6FcX5NUAytYcUXRopcz0QS/QwOs1n6b8FYCv+THsSIfahgCoGrkz0OACAww4WABmpqwCUOxYwufwYwBBHIzJurC4p/P/t3Xl4VdXVP/Dv2ufcIRNDmEUFFRRFkCmJolYgCThPrb5vB61ah6ok4Iza1qtWFBxoEtSfVKu1k2Jtax0hN8QBhSTgCDiAihODQiDznc5Zvz8CvghJyHD2ufcm6/M8Po8m9661wOTuffbZZ+0/7f5PmQAIRzw+kr67ZH3kEwCHx7uWziKG9qOAAcAiLtWeRIg9RVQpe22LmI241hG1HN0DkP1d00WVhXnvORYwQeQUl81msMODP/2mclbuA3t+SW4BCMcwoTzeNXRFiguDPwDAMBe5k0gIYETxS76cqSOvX9knLf6f9/Vh52J5ze1Ufl23G/yzi0oLGLzA0aDMt1fOyr1r7y/H/wdCdCOc1BOANBcmAGGT6+8aQ4n1WJbotrIWLB3XF94qADe8NLCXSzPc1nGdgxMAn7HYuWCJIae49BIQFTkc9oHKWfmBlr4htwCEY6yoN2ia0SgAT7xr6YzUqP7Px4ji1dqTiB7vvMWLjS+29Lse4NsB+ACgvH8GtnzhweBQfPbqcFMEsBzaZWsallJ9b3YmWGLILgr+koE/ovnEcEcwo6hqVt51rX1fVgCEY548krYD9HK86+gMj0Xwu3P//27tSUSPllO0dOQXWzLfAPge7Br8ASBGhL8dkBm3uqjWuat/8pvPUfCKGscCxll2Sdl5IDwKZ8fkR6sKc69p6wUyARCOYth/iXcNndErQs5Nu1vRiJhV9lr5Z5rTiJ6KmbJKglcxqXcBHNfSS/47uDc2++KwQBeKghsjzsQyVYxU+uXOBIu/rOLSc8H8dzi4Is/Mj1dWL78C1PbxpjIBEI5Kh/d5ILmecycAvSP6r/6/qtluMKm12cXBe0YUv+Tb/zuEaJ+sB8sHZxeX/ZcYDwJIbe11YaWw4LBBLlbWjHc0ORcszbyfymZudy5g/EwqKTuFQI4O/gCerNrx5qUIBPZ7v0UmAMJRJSMpzMQPxbuOjkiJEryan/+3iPHRp+uB5v0RN2XC+3Z2cfBErUlFj5BdUvozsqx1IJzente/npmO1zPda5/LDRHAoX0H5DO3GsGb5zgSLM5yisumK+Z/YY/bNA74Z2q18av2DP6ATACEBlbU+wcgeY4Hzgzp/zX4qmEHotEfLIEeBeC17OLgH0946I2+2gsQ3U72wmC/7OLgYjD9DUCHfoZ+f/gQbPG7cCvAtoHqBmdiGcoiT0quM8HiK6s4mMfg5wD4HQtK+HdqtfHTVwNT291pSSYAwnHNmwGRFM+6+yxCuubd/zYx1qz/qKVvEYBLI7Hwhpyi4OVgjvtjWiI5ZBeXngYbawCc15n315oGbjv8AMRI84/c1npnTv8jQKV7Z1P5tWu7Hiy+JpUsPZ6Af8PJwR94pZojHRr8AZkACE0+e/PdHVY0cQ4ga82ARv2/AhsbqhEKhdp6SSYTHskuCb4ysbjsMO0FiaR1/LzlGTnFZYsAegHA4K7Eeq9XCu44fAi0HX+xowns1COHaf7HKHjTQmeCxU/2wuBxitXLABy7B8OM0tQM45wNhad2+DELmQAIR40ofsmXXRz8c2Nt7Z1b12+MdzltSonqv/oPk433P2zvRQtNN8Af5BQFb574yKqk7KUg9MleGDwumhJazeDLnIq5dEAvFB0y0Klw3+OGCLjGmQMvKc33vFF+06WOBIujScWl42HjRQAZzkWlMtNKPevVi6e2eYXRGpkACMfk/CE4KBPecgAXAsCOLzejsaYuzlW1bpALV//vf/MZYrEOrYSkMGGuCu9cnVVUNllXXSJ5THxklSe7qDQAG28AGOl0/KeHZuL3I4fAcuh2ADeEgW/rgDYfQGunDN9T6tU5ZzoQKa6yi5cdo0BBdHCvxn68lWqos1dcO7nTj1jIBEA44riS0jGsUIE9nj9mZmxasx627cIZux2U2aTg17zzf2usAV989WWn3kvAGCJ+I7uo9OFxC8r7OFyaSBKTipYcbUR2VoLoNgDaDvJ5YVDv2B+H9X8KQJdm7NwQAb51YP8vESPdN99YNuenXQ8WX8eVlI4B7CAAJ7swrfQ0+U9+9eqpXfrLlgmA6LKsouDJFtMbaOHoylBtPbZ+/HkcqmqdzyIM0LzzP0QWVr7/TlfDKBD92mtY67KKSs93oi6RHM5bvNjILi67SZGxGoxxmtOtVYpyrpr/Pz8lZYwFUNmZIFzT1Hzl31UeI6R6ec8wyufc1PVg8ZW9MHi4xbQEQH/HghLe9Zq+U9+86YQu/2XLBEB0SXZR8FoivACgd2uv2b7xG9Ru3eZiVa0jAEPqFdruj9U1NoCKDWv3fuyvK4YQ0dPZJaUvHrugfLhTQUViyi5ZcsgXWzLLd7Xy9WpMxQQUVyMyceXM3LcBgJ66ciOlpp3EhDsAtO++ss3A1jqguov3/AngNO8bamDaEArOebFrweLvuAfLR7CNcgBDHAz7Hgh5y686cYcTweQwINEpEx9Z5THCOx8C0K7NOd+8/wm8OSnw90rTXFnbBjXoX/pfs+1LfLdNw4SH6VTbsNZlF5XOb9ixY+7awPmOzTBEAmCmnOKyy5hxPxzcJd6KjQz7osrC6a/t/Q164uIQgNv4x0V/ZcOYB+BstHZATSgK/q4BiFldq8ZvblZe85dUdlNp1wIlholFpQdbllVKwAFOxSTQR7B5RkVhnmNdEGUFQHTYcQ+8kqnCO5einYM/AFixGL5YtQaRpk5tVnVEZkihT1jvj/z6um/xyacbdKZIAdFtaZmZVTnFpcfqTCTck/Vg+eDskrLnmfAItA/+/BdPk39sVQuD/57o2Vnr1eKZ5xIZYxn0V+y5IhCzgG/rwJtrOz/4E4FSPBtVuv/Hxhu3HtBdBv+sB5ccZCgqBzDcwbCfxKzotIrZeVsdjCkrAKJjJv1h2RGWsl4gYERH3xsNh/FF1Qc49NhjYHh1rmzuKyOiMKBJ7+Bf67FWvLduzesArofGDVu7jGXQW1klwT8qjtxQUXhqreZ8QpPskrLzYFn/D85uEmvJVkXq8pUF0/7bkTfR01euAXABn72gAF7veXZ96EpsbxgHuxONq4hAHnM7+9TLysu/pVdu3tjhGAns+JKlB0QtWgbgUOei8gYP8dTKa07e7FzMZtJ5TLRbVnEwj4DF6OKjLL60VAzLGgNvijvn4aRGCQfVG1rv+9f77JV3jDOPA5qf91WgRQAm6cv4A5sBnlNZmP+kS/m0ySkO3sdAq+eXt4lxXeWsvAccLkmbcQvK+3gNayGAn7uQ7p9WxLhy9fVTHbk3xVMW9IEZvoBjmAabj4BtD2IbKWA20byybIMQhaIwGWoTSK0nk5ehLvXPVFHYLSerUx4v9zfWWa8DyHIw7JfKMk5aec3UjQ7G/J5MAES7ZBWXXkagB9F8mE2XeXw+DJt0tPY9AWlRwtB6A0rT4M8E1Hn4778fb/zgQ3xKoNxs6mddzYzfQ//93N1eNBVd/dbM3C9cyue4njIByC4pnQHQY2AM1Zyqhhg3VszKS4rW3Mkspzj4OwZudzDkVyDrpMqCGdoeo5I9AKJNzY8jBe+h5itax7rTRcNhfF75Pppq6rQ9HtAronBgnb7B3yZwjY/v2nvwB4BXA1NjFQV5RUaMRhHoX3oq2MdpMZvXZReX3TQlUC639xLQxEeeT80pDhaB6WXdgz8zSgnG0TL46zc6sNjLwGyn4jGwidjO1Tn4AzIBEG04ft7yjC82Z/4HgJbnce1otHhz3ftDiDEbgENNw5uXtfo3qebH/ZwKupewwY3bUqxpc48xftPW61Zcm/tNRWHujxl0JoCvNZWzp1SA72nMtFZNKi7LdiGfaKfshcHjjLD/PQYKoXf1tQmgOVU7lp9cUTjVjZ+5Hi+jX9/JcK7L31abrNyKWdPXOxSvVXKVIFqUtSB4aNQIPY/mY2udFmPCrMqCvIcA4FWg6KKPo28bih9noEuH4SgbOKBBIT2qZ27LBDSY1qptPnPqQ6ONdnfhqirMfX7iI6Wvm2G6g4GroX+T4DEKvCKrJPiobBKMr133hgOwcT1Aev+/E1eA6MLKmbmfaM0jfsBijHRoRrfNIM6vLJjR4vGhTpMVALGPrKKyyWRgBfQM/tXEmF61a/Df7YkjPG/URjxHEWgO2tuAZC+pUcIhtYa2wT9kcv12v/2LOyZ4sh4aTR1uwbn6ivyaisK8WUpRNoDVGkrcmyLG5Ta8H+YUB3/iQj6xl+NKSsc01lsr0LyKpnPwj4L59mGDdhxfOTNPBn+XESkn/t/usMHTVxTkf+BArHaRCYD4gezisp8ScRkA548IA9bbtppcMSuvvKVvPjOaIo+N9MwjsscA9AzQvpNKFQODGxQOqjPgsZ1fWY0qjtX4+DF7guo9f6z5t67GWzkz9+3UauNYIswG4EDj9LYRcAADz2QXBZ+fWFR6sO58onkTaHZx2U0W0yqXWvkeWzkrP/DM+ed3sSOP6AyyqXOHfvyfGrYxY1Vhfpf7h3eETABEM2bKLioNAPx3AH7nw6M0YhnZq2ZP+3h/r31shH/Dn0Z6zgfbI8FYhDb2B/QOKxxWY6JP2Pn7/TGF6E4f/zVarzLuGmdcGiBy7FSj3ZsEQdZYAK84FbdNhNMNonXZxWU3nbd4se5bED1W1oLgoY2Z1jIXWvnae7fyFfGRYtLr6OTKJYAGtunMqtl5VU7W1B7yGKDA2HuXpPl9xl/R3PLTcUxYZHv7zFx9xaRObfS7dH3jgTY8vwD4AgBHEYCMsEK/JoLP4St+JnCThz+PkFrkPQb3B4g6dJZvZ2UVl51BxA+78FjYbu+wjSvi8aHTlqR+DHB3K1/CAwB097zeyLAv2l83P+Ge7OKyhwC+soNva1TEp60syH9VR037IxOAHu64B8qGWiY/B2CihvAWQLdWFubOcyrgpRsiEwc2qNtSojTFa1OGE819ogqxqMGfh4ElUUPded8x9G3Xo3bcuAXlfXyGdTsDM+HO6lyMgIfMJv9vnDhZzAnJOgHIerB8MFnWowBO05+N/5JqmFd19ShY4azxxS8N8MC7GsBB7XxLiIEzqgrzgjrraotMAHqwXR3r/gvgQA3h66Dws8qZeS9oiA0ACKzlwVu3Vd9uRWOX9/anwG/64FMGTKh9nv23CbCJEbFtNFkRNESa0BiJfDVwyIAL7xnjeVVXjZ0xqWTp8YrVIwBGu5KQ8A0zF1YV5rvVr6BVyTgByC4pOw/MrrTyZdBlVYW5z2vOIzop5w/BsazwCvZ/AuBOBs6L5+APyASgx9r1ofUEgFTHgxM+I8YZFYV56xyPvZechcF8trG0pe95TA8M00Ao1PKtOWaUVs3Km661wE6a+MgqjxnZeRUz7oL+5eRmjBfYtK6qunrGV67ka0EyTQBcbuX7DBSurJzp3ElwQo+JC14ZokzzAWKcj5ZW8ohfIptnu/Gc//5IH4CehpmyS5bdCOa50LDMTOA3DdM+960rZ8RlGX1P0VgU0Zhj/YVctWu/RNHE4rIXDNgPAaR/okI4nSzjxJyS4G0HD6peGNcd5QbD268RZv8mcFoU7LUAk0EMUEyBIgqoMxHdlo7I9hTXy8sqCp4Msh6Dg8e9tkJa+SaZ1c2H9vx0YlHpTYowg5hGEMEA43PAXlpRGP+BfzdZAehBRhS/5OvH3keZ8AtNKf7UUF19pZvn1Le1ArA/ibwCsLddKzYLoefxzH0w8LZidXnFrGlu9CvAz2ruHLnN7nVldSjlgm0+o//Xph+xdn48pcDG4GgYQyLRr/p56x9Ps32PPDWgYJOOOo+ftzwjkhq6jxiXQfPnJzNKFRmXSDc/oYtMAHqIiQteGWIa5n8Y0NEelsF8R+Ws/ICG2G3qKRMAADjhoTf6RmPhgNubBFMM41YdG87e+uqalPrU6OlbVMplJeqQvCrq48jnkQHGkVy/7TA0Pt0fNb97rHeg2om4WUVlk4nsPwPU4aOwO6iJCDdXzMwtBuk8w1L0dDIB6AF2bUz5L4BhGsLXg3BBZUHefzTE3q+eNAHYLbs4eCKA/wc9nRpb8jkzrqqaledIv4Il2686SLG6AcAl2GN/wxrqhYfM4VhPzh2emA6Lx1k1bw43Gi79a6+b9tuDoiXft/IFrof+Fs4rofBL6eYn3CATgG5uUknZKYr5KQC9HA9O+IZsdZZby8Qt6YkTAKB5k6ARrrkW4AA0NG5qEeMFw6Jfr7g295vOvP2V72YPUYjdSYQL0EqDHAbwgjEYjxrD0ejgIocfFibYNauH2vXnPpM5p91d244rKR1jgZ50oZtfFMxzhw3Zcad08xNukQlAN5ZTEpzFjAegY7mYuIKVeXbV1VO3OB67A3rqBGC34x4sH2Fb1sMM5LmUcicRAhXbl5cgEGhXZ8QAB9QJ27ZdyoT5AHq35z2byY955kispYwuFbu33hy1J1vVj+b0rbkyQK3XPyVQbjZm2tcBfAf0dvMDgLU2+AK328AKIROAbmh0YLE3PTPzEQYu0pTiGSOW+ssV105u0hS/3Xr6BADAric7ghcA6j6AB7iRksBv2sq4omrmtLVtvS649cpD2TCfAjirozksEBaZw/Av5fxG+1Fcu318bOdJ/+g3Z5/6sxYEDyUDfwZwguOJf8gmYOF2RG7cUHhqWHMuIfYhE4BuJnthsB/b+CcBUzSEZwDzKwtyb06UzUkyAfg/Jzz0Rt+wFb7HjR3qu0QJeLgpbN3y/g0zGvb+ZnDbzLMB/Im7eE76UjUAC8wR7X4qoL36ctSext/OebbPDfcCcL+Vr02/rJqd+7rmPEK0SiYA3UhO0dKRTOoFAIdrCB9i4NKqwrwun4bnJJkA7CvrD2U/UgqPMHiUKwkJnwF8VWVB/pLdXwp+V3A7E//OqRQrVV/83jgCYXL2bpYCI8/a9rftTxxxg2GYf4S08hU9iEwAuomc4rLpDH4aQB8N4TfboLNXFeZWaojdJTIBaNmUx8v9jbWxOSCaA8DnUtpn+vatmXX9KeW/A/Brp4Ovpj74rTkKUYcnAQBw0taGWNPLh+hujCatfEVCkeOAu4GcouDlDH4Begb/9y3mYxNx8Bete/XiqaHKWfkBYnsMgGVu5CTwedOPWr8RGgZ/AJjIO3GL9QkUnL/79NqgNNM89QvH4+7hGSiMlsFfJBKZACSx8xYvNrJLyoqZ8AgAj+MJiF8iRE5cPSu/3Y9NicRSMWv6+sqC3DyAfwlgm85cJ49fi7HDvta6Y/4EuxqXxfQM1G8NTEHKVMd/1KuZ8L+VhXnnSx9/kWhkApCkjp+3POOLLZnPgblAR3wCiiu3v3lGReGptTriCxcRcWVh/pNk42iA/6IjxQmjNuCEIzfoCL2Pn9ibkGfrOWri9WE+pGU700WYgJc9ZI+pKsh72pGAQjhMDgNKQhOLyw6LUuh5MI7UED7CoCsqC3Of0BBbxFHF7LytAC48tqT0TzbT/wNwhBNxhw/Yjhnj2nwa0HGzYp/hI08GviZnDwJiEFYcpZCzqRZNX3e6d1Y9gOsrCnIXJcrTMkK0RFYAksykkqXHG8AKTYP/doY9vUoG/25tZUH+q0YsdTyYbwfQpYObUnxRnDd5FZRyd5zzw8ZNsQ1a9gOEoPDZlJ0wfLEOv5fAb1qgcZWFeY/I4C8SnUwAkkh2SfBXitUyTc1ePoHC5KrC6a9piC0SzIprJzdVzsoPGMSTAKzobJyzJr2LPmnx6Qc1iutwhr1VS+yvTD+Q16FD+KJgvv3gwTtOWl2Y+6mWooRwmEwAkgEzZReVBsB4FFrakvJSy8fZcgBJz7OiIP+DyurlJzD4KgA7O/LeEYO/xZhhnToWwDEXxb5AH45qiV01IAVpB7frr+Q9sjGpclZ+QPr4i2QiE4AEN+XB8vTskrJ/g+g2HfGZsCi12jxt9RX5NTriiyQQCNhVhfkPW1bsKIAWt+ctprJxZtZ7uivbr3RY+JnVoSv1douB8PXxbf5aWMR0T0N1dXbF7Lz3tRQhhEayCTCB5RSXH9hgWc8RMEFD+BhA11QV5C7UEFskodXXnLwZwP/kFC37M5P9IIDhrb12wqFfol/GPt1/4+I03opneCi+I+cXx9b7UjB1zLdo+GDg3t/6nG26qFJa+YokJisACSqnuPRYhrVK0+C/g9k+ubJQBn+xr4pZ014Kha2jmfg+APvshCNinHiUO4/8tYeXbZxjb9YW/8sxe+9x4L+kGsZY6eMvkp1MABJQVknwfxi0DMAgDeE/VRYfXzVrepmG2KKbeP+GGQ1VBfk3sGVnEfCDLpBjD/4GmemJ1cb+ZGsrfNBz+/1TbwrSjtgGBjYx45TKwvwLpY+/6A5kApBIdm32I8Y/ADj7gHOz5VFEjlt5Tf6HGmKLbqjqmunvVhTkHkuMKwDUAkDWyI3xLaoFGYjhR3a1tvg1x9TUm7HYmKpZea9oSyKEy5JmD0CgvNwfqU0/Eco40WIaY9t2PwJSGUi1GenM7CdFEcUcBqkmRahjG3Wk1JekeKUZs8p/f86khH08Z8rj5f7G4mWPgehnmlI8avn6XPXOFZP0bJkW3RcRVwCLJi545fmhAxoXDh+w7dx4l9SSKdY2lCodT8gC61JT03/x8488K67VEl6IuEjICQAz031LPxwNg6dFLc6vC0cnb98ey2RmtHBL8v98vwJo7/2dXwHArH9W2YaietOgDQboJV/MeCTw42P0bCHugONLlh7QWGf9B4QsDeEtgG6tLMydpyG26EFWX3Py5ru3FawmICEnABN4J9IRQ72Gj7UQDHztw+3QdNCREPGQMBOAe0o/7a0Q+jEDM+4NrpsChYFgwFSEvile9PJ50BCJoT4aRczqXIMti1lZFveKWJgAYEI9Yr+59tlVDaahPiADD887Y8KTzv6p9i+7eNkxUbb/C+BgDeHrFamfryyY9l8NsUUPRMynJuoh4iYYx9g1eFP10xJ/K/lmaAksRJzEdQIQCLBKO+HDaWC+kBE6F0Baa58thiL08nvQy+9BU8xCTSiCSGyfK/0OYQAR206L2PaxiOLY2c9W/dFjqhVe0O/uOmuC9h2+OSWlP2a2nwSQqiH81zb4zMqCae9oiC16oOc3XZ6qaZXKMRO4Bm9CzwTgc6QcHOCAClCgax88QiSIuEwAHnhlbaZloICx7tfMGNzR96eYBlLSUxCKWdjpwERgt5jN3ljEOqkJeO2af63anuKju+aeNnGBI8H3klMSnMWMB6BnI+YKsnHOqtn5evqkih7J5/OdAGatx/121ZF2PWDoib2TvGpNXeqpAF7Qk0EId7k6AZj70voBhidydQyYBaBPV+P5TQOD0lPQFI1hR1MUlu3cxDxq2f2ijXjgmmdX3ekz1EL/WeNvCRB1OcGI4pd8mfAuYsaFTtS5NwKeVrHUi1dcOzk+DdpFt0XMOnpSOOoQboAJRkzTfYpGy3cyZAIguglXJgDFL63v1WRGbiOKXAmHH28jAKkeEykeE7WhCGrDUbCDZ3BFbTstats3hf61qvCW597+7dyzJtzf2VjZC4P9YOFfIPzIuQq/x2C+o6Iw73Y5hUzoQOAjOFE3AOxignEgN2Ej6birBtTDGKMlsBBxoL0PwL1L1pwR8kTWEOFa6Hm2HUDzRKC334vB6SnwGs7/sWI2p9RGYvdd9++3t9z8n1U5HX3/pKIlR8PGKk2Dfwign1fOyg/I4C90YdAR8a6hPQYirC12LRnDtQUXwmXaVgDuW/L+KNswHmTGNF05WuIxFAZnpKAmFEVtKAp2+LzwcCw2KKJoxU3Pvf3voZ6MnxWeOnK/nzbZJaUzwPQ0gN6OFgOAgU1E9lmVBdNXOR1biD0xcFBiX/83G2BHtO0DqCVPXz2RhXCflhWA+aXry41YyQAAIABJREFULrSVsRouD/576u33YEC6HwY5/5HFNlNDJHbu56Gd39367Opj23ptTlHwcjC9AA2DPwjvwrCOlcFfuIGAXvGuoT0y2uoV0kVhaDhxSIg4cXQCMG/5RxnzS9f9HeA/Q8+jbR3iNxUGZaTAp+GWAABELc6oZ/vNG597Z5+jeqcEys2s4uBCJjwCDSstzHjW8jYdX3X1jK+cji3E3rj55n9avOtoD9++jcAcEyJD09qCEO5zbGScv3TtOGqyVgP8U6diOsFUhIEZKUjx6Pm9tZhVUyQauPE/b68IlJf7AeC4B17JbMy0lhBwtYaUDGBe1Y7l56++4oxGDfGF2MerGy/yQdvCurM8GicAEVZJ8XcgRHs4MgGYt3RtLgivAxjpRDynEYD+aT6k+zxa4jOAxmjs2NqdGRvPfLJikm163gS03P4IA3xRZWHeHASkGYlwz5ThT4TRQo/tRBTVuLfZCwefNRYizrr8m3Jv6dqfEeFlABkO1KMN4f9aCusSidmDDklTlSkeNUpD+G1s0/TKwnzX2xULQQQGuCHedbRHWOMEwA9b3wYDIVzWpd+UeaVrZzLwFwD6RlUHEYA+KV5kaJwEWDbT2IHp6OVzbqWQgQ+UZWRVzc7V3p5YiNZRbbwraA8dhwHt5oMlp2mKbqPTE4B5petuIKCkKzHipU+KF2lefR8Sts0Y3S8d6V5HJgGv2D4+ceU1Uzc6EUyIzmLgm3jX0B7fatyon87WTm3BhXBZpwbve5eu/QWBk/Z4WQLQL9WHVE0bAwHAYsaYAenwd+EJBAKKhw2uPn31Ffk1DpYmRKcQ6ON419Ae2zROAHpz9AttwYVwWYcvg+cHPzidGY8DCd4TtB36pfoQqw8jYlla4ls2Y9zgDFRtqoXVsf7EERCuqijIe6xCS2VCdAYn/AQgBsJX+hqOIo2sNdqCC+GyDl2e3lP2wWSwehpxPkbYKUSE/mleKA3NgnazbcakIb2g2v9XvV0Rz6gsyHtMW1FCdAbTu/EuYX++pFRESd9dyQzEgtqCC+Gydv+mzH1p/QBlq8VIgAY/TjKVQv80H0jjggYzY8yA/fdQIdBHhmEcu7Ig/1VtxQjRSSlIeR3Q2GbPAR+qdG2xeyFqo/fB/9aWQAiXtWsCEAiw8ngifwEwVHM9ceE3DfTy632QwWcSDszwt/p9AoJhSx234uqpG7QWIkQnnTBgfh2A1fGuoy3vkPMdt3c7xG785hk6X8/9QiHioF0TgNTJ6+YwMEN3MfHUy+eBV3OXzwMzWt54SIyHUqqNU969ZqrsMBaJjfFKvEtojQ3Cu0rfBGAwIrL8L7qV/U4A7in7YDIIt7tRTDwRAZmpes/5sJkxdsAPlihjABVUzMq7+tXA1IReWhUCACy2/wo4fMSmQ96h3qjR1JLEyzb6cbTbfw6KnqXNCUCgvNxUtvEwusmmv/3xGgq9Nd8KsJkxMjMNAOqgcE5lYe5CrQmFcMi4BeV9bnvq3Fu/3JaZkE8AvWb01xb7KK778u99r5dHAEW30uYEINUadC3AY90qJhH08nlgKr2fb/38Jg7olXpO5cy8F7QmEsIh2QuDp3sMay0DF636dHi8y9lHIwy8pvRNAIah8SFtwYWIk1YnAPcv+eAgYv6tm8UkAiJCH7/+WwGH9/HeqzWJEA4Yt6C8T1ZJ8BHYeJ6AAwDg3c8PxM4Gfc/ad8YSNRCNmpqSHmw3NY3vXSe/r6LbafU3xlJqAQP6nqlJYCleU/uGwMaoPf7G56t+ojWJEF2QU1R6ltewPiTG5Xt+3bIVln80Il5l7SMGwr/MA7TFH4uaogDJ6Zui+2lxAnB/6drxAM51uZaE0XxokP7zjawolWhPIkQHZS8M9ssuKvsbE/0HwOCWXrNqw3DsbEiMliBLjIHYAp+W2MO5sWFS79pbtQQXIs5anABYhN+iG7T67Qq/acDbhT7+7RGx7MGyCiASSfbC4Ols430Q/6yt10UtAy+uHuNWWa1qgoG/qYO0xFZgZNnVM+XqX3RX++zun1f6wZFgnBWPYhJNL78H2xrC2uIzADtG9wP4p7YkQrTD+OKXBnjgWwibz2/vzH/d10Pw0abBGHXAFq21teVvxoH4TtPhP5OsnWue6XvjE1qCC5EA9rnEJajftPT1nijVY8JUev8qwjH74N+8+N7JWpMI0YasotLzPfCtBfj8jr73PyvHoS7UeodLnT6jNDxr6Ln3P4hD0UNj9d26+ZkQPxjd5pW/dyCADn8IdGfpXr0tEBhAKBK7X2sSIVqQ84fgoKyi4D+J6GmAB3QmRl3Ij3+tHI+OHXbZdVFSmGeOQEzDnUoP2/iRtfOipwbctMnx4EIkkB9MAChm/gI9pOlPe6V6Da0HBQFAxLKPDLyyNlNrEiH2kF1c9lNWWEOEH3c11iebBqF87RFOlNVuD6vh+Iz2f8BWZ0zFtiefybz271qCC5FA9h7sfx6XKhKYqRT8HoWmqL4zQGxmCkWjtwC4XlsSIdB81Q9FDzHY0ad8lr0/Cr1SQph0mP5meUvVADxvtPhwQpf9yNr22tK+s3+pJbgQCeb7FYB5Sz+YBODoONaSsFI9+hdFolZMJl9Cq+ySsvNYYY3Tgz8AMAjPVY3DR98McTr0D6ymPlhg6ulBkM07P3y9b+EULcGFSEB73AJQF8SvjMSW0sIJfk6LxOzBNz//8SjtiUSPk/Vg+eDskuC/wLwYgLZ+ubZN+Pvy7MZN1X3e0xF/LWXgNs8RWu77T7ar30vt9W2PansuxPcTAFI4M56FJDJFBJ+p92kAZsC2mmZrTSJ6nOySsvPIstaAcY7+bLw0EsORF478/XgidnRj6/uqF27xHIUwnJ2MExg/sra99lafmeNepYCcyCl6FBMA7itbN8y2eXica0loKR4T4VhEaw6brWlaE4geY+KCV4YYhvkwmN3o6VFLjBsqCvP+CCKmWQDw4PWl2wreB/hhAF1qGbhcZeJu43BEHH46OR0W59pb73uu7/U3OhpYiCShAMC2OTfehSQ6v+YVAACI2vYh2pOIbi+7pOw8wzDXAK409FpiMY+pmJW3CEQ/eBgwv3/Jk1A4FsBHnQnMIDxpHIQ7zCMQIWd//w61G+pPj35zwnN9ZPAXPVfzbxVhapzrSHhewwCR3scBYzabtzz3rvy/EJ0yccErQ7KKS5/bda9f92OlNcS4orIg95TVs/K/bO1F+ZkLP+jbLzKWwXMAhNobvJo8uNUzCn8xDgI7eM8/FRZPt759dmLvb/o91W/OW44FFiIJNU8AWCYA7aH7bAAAsNi+SHsS0b0wU3Zx6YWGYa4lkPa9PAS8zIbV4lV/SybRouj0/g/OUxYdDeBZAG321i9X/XG5ZxyqqK9TJcMEY5K985OzYlvGLe07+yfPUEDv/TwhkoB5X/nH/e1YbGi8C0kGXkMhHNPXDwAAbOJxWhOIbmXywrJhVknZowzKcyHdTmLcVDErb1Fn3pw7qORTAD8Jbi84Csw3M/C/2KMXyWeUhoeM4XhP9XaqXnjZxji7Zs2hdt0VT/Wb89YqxyILkfxMOxo9ApqXtrsLV1YAYvaB2pOI5MdMOcVll8Vsvg9AhvZ8xC8Rm1dUzJr6dVdD5fUrWQfggldqrpllRqI/2UK+Sx81h2W9pvrDiY7CBMYIu6F+JOpfOhDVtyzq+/tPKx2IK0R3Y5JSo9jtRt5JylT6J0oW0Et7EpHUjl1QPtwuWfYoE9zYvNt81V+Y36mr/rac3HtBNYBFABb9dMf8k6bxtsu+Y++Jm5X/gO/Q/kM4FBgDEIkeyE0bB1qRst4+a9FTva57Z73TBQvRzZhgdreJdxJzYwJg22zeEvxs0Ny8Q7dqTyaSy66rfpus+wGku5DxRSNGV6y4Nvcb3Yn+0ffG1wC8tvu/p217eGiGajoppmh8mIyhFqh31EaGQbAM5joTdo2X7K99iir8UWPZ3/oV1sovjBAdYzJweLyLSBaG5qOBgebTAe36HVMAPK09mUga2SVLDkFJ2aNMcKNXxA5izOnsvX4nLOt/5TcA/r7rHyGEBgrAwHgXkUwMF1YBFPGh2pOI5MBMOUXBy8HG+4ALgz/jBQ/ZR8dz8BdCuMOEGxuIuhFFBMuRrUqts8iQo4EFshYED0VJ2WNMmOJCum9BNLOyMPcZF3IJIRKATAA6iDQcRLIPZucegBbJJxBQOX1PuJQJDwDQc+j9Dz0TReTqdwpO/c6FXEKIBGHCnc1E3YYLdwAAwLkHoUVSmVhcdpgBPMbgk1xIt5WIr64oyH/WhVxCiAQjKwAd5Mb4z7ZMANprQN9+A70+P/qm90JaagpSPD54lAETCooIYIJNNmK2DYsZESuK+nAINfV1qKuv7xdgNgNE8T8FbvdVP9i1q34rYly1+vqp21zIJYRIQO1+1lY0c6NnEhFLZ6ZWXPAepx3IsRu9rM70xmiUacPf6l/W7q0arJpnbgRA+TDIkw6k9weACXaVHQm8bW2KEb9pe/hPc4/2LHHhj/EDOcXBowA8zkC2C+m2gunKylm5/3YhlxAigZkA6qH/4JBuw3ajZxKh1oUsSSPArL78LDYZFl8Aiv602qKMviFGKnd9R4ZiotQohgJ0PiI4/65VVjhk0LImRTfedwytceQP0IopgXKzMdO+jsG3A/DpzLXLM1C4snJm7nYXcgkhEpwJoA4yAWg3d3om0k5X0iS4877ilIxw9NIvN0SvAzBs92gfNRjfpjGqU2z0b1LoE3auP4PHIp/Hwinp4FNue9vaGDH5mrvHmv9xLMEuWQuXjW60rccBZDkduwVbQLiysiDP8T+HECJ5mWDUu3Jju5two20yKbVDe5IEdvkmTrUaYgUcil4DYFBrr4spYEuajZ1+xuAGBX/MuR9kApAWpeFpUfp3YLW1KWTwtfeMM7vcnGn3VT9s27WrfiMW+/WKa0+udiGXECKJmCDUxbuIZGK7MAFgtnrsh/Wv1ofOiDVEiwAc0t73hAzGxl4W+oQUBjYqON2vMTVGB6TG6KnAO9bcaqiTi8dTp9rMTypacnQjWY8DmORwiS3ZrEj9emXBtP+6kEsIkYRMEL5zaV076TEYlgsTAMPwbNSeJMFc+HHjUEN5HmbwGZ2NsdNvo8nDGFqn4LWdX9ZKjdChPmV/dPPb1kN3TzAK2vu+76/6wXcA8Dpe2L6e8Zq+K5ZfdWKPXkkSQrSN5gfX3gfGdfEuJBlYNuOb2katOQjAB9sbnm+MxP5pxKwXesLS7a8+jeaybf8VoMFOxDMYGFKvkB7Vd3ZDg4c3VENNLplAbTbPOa6kdIzF9DiAidqK+T9fkMJlFTPzSl3IJYRIcnRv6ZrLGCR9v9shHLOwtT6kNYdBhBWbanb/pw3gHQBBBoK2r89rq6+YFNVagIvOYzYyNkTuAuhGONxigQAMaFTIDOmbBEQNDtca6sfzxtOLe39v4iOrPEa45lqXrvqZCX/0Nvqvf/OmE+SWnhCiXei+Jet+ZCt+bf8vFQ2RKLY3RrTmUEph5TetPgSwA0AQhCXExpKKwqlfay1Go4L17GtA7K8A/0RnnsyQwoBGpW2fq63AO0wumDfeeHD313L+EBzLCk8AGK8p7Z42MnBZVWFe0IVcQohuhO4KfjDIw2pLvAtJBjuaIqgL670AtwGs2tzeNgC0hsBLoLAkJc1449WLp+pdnnDIRZ9zHxWLPgfgR27k6xtSGNSobyWAAezw8f2lFe/cLFf9QohkQQAwv3TtZgCO3H/tzrbWNSFs2Vpz1EctrNvW0Jm3NhHwJoOCxBSsKJz6NogSbnvn5Z9y75gdLYc7V8ff69ekMKBJ3yQAANbt2PTduk8+GqA1SbPPQXRpZUHuMhdyCSG6KQKAeUvX/IOI/jfexSQyBuPrmkbofgjgs5oQtjlzm+ELJiwB8xLbh7LVV+TX7P8tel30OftVLLoELl35721wg7NNg/bGAFZv/gwbv9yoLQUT/pimjOtevXpqva4kQoieoXkFILj2cjAeiXcxiSxq29hc26Q1x14bAJ0UA7CSwUtg05KqnctXIxDQu5Sxl+YNf7GnAf6xm3n3RAAOqjOQGtXX+comYMXGD7F5y2ZnAxM+IxuXVszKK3c2sBCip2qeACxdNxLEn8S7mERWF4piR0jvBkAQULnJlWMAtgNYRowgyHjJjc2El6wP3w3QHN159se0geE1JkyNKzlRYpR+UInGhk7dytmbDaYiy9/4m9VXnKH3GVQhRI/y/aXQ/NK1GwEMi18piW1rfQjhmKU1R23EwkfbHRk0OoJBeA82lkLRkobt25evDZzv6EznVxuiJzPzi4DjTfo6JS1KOKjO0JpjJ4exbNUK2HaXFlo+ZqZLqmblvuVUXUIIsdueE4CHAFwZx1oSls3NDYB03/9ft70B9RG9k4x2aEDz6sASZRpLVlw9dUNXgl34ceNQU5nvAHBjc1y76d4PAACfNWzH22ve68xbLSZeYEbTfrfi2sl67zsJIXosc/e/EKm/MNsyAWhBOGprH/wVUSIM/gCQBuAMJpxhWRayi4OfEmMJKbXEr2hZRzefeZTnQQYn1OAPAN+l2kiLEjwaWgbvdkhaP3zRrx+2b+/A6buED4n5ksqC/JXaChNCCOzVfW1+6dqPABwRp1oS1ncNITRF9Q7OO8MxfFKd8Ld4Iwy8BeIlzFiyqiDv3bYeNdy19P+ymwV2RK+IwgH1elcB6hDFkoo32vPSGID7UzOMQLL0cxBCJLcfTADuDa75LTPdEa9iEpHFjE2al/+JCG9vqUO0a/eL42ErwEsZtCSGyNJ3Ck/9vi/+eV9xSkYougbAoXGsr00EYFiNAb+l9zzsNdu+xkeftrnHdi3buLhqdl6V1kKEEGIPP/jku/vlD4cbpv0pEmSzViKoC0exo0nv7n8GUNXu7n8JbR2A5xkIjj3lxIkMuifeBe2PGxsCo8R4oep1WNY+q0gxEM+r5uidGwpPDWstQggh9rLPpc/80rX/BBC3Z7UTCQPYUteEqMbufwTgy7rIp5vrQ4fC4QNx4kUphZFTstnj8ybFn2dYrYGUmN5SP9yxGWs/+XCPr9AakHVxZcH0VVoTCyFEK/a90mf8Hs1jX4/XFLW0Dv4A4DHU5ucuOWGEqegQBl/OjGcBxL1rX1f0PXAwkmXwB4Adfv0/7odlDoJSCgCiDNzRUL19ogz+Qoh4avFDen7p2hcBnOpyLQlnS30TIjG9E4CMFM9Fd58+/s97fm1KoNxs6hs7FqRmMHgGms+ST4rbMkSEkT/KgjfVH+9S2o0AHLZDb3MgAFi7Y9O36z5cN6Pqmunv6s0khBD71+IEYF7pumMJvMLtYhJJOGZha73ezdg+U227/5xJ+31EbuJ95f0Nr51P4OkMzAAwRGthXZCW2QeH5IyNdxkdNrBJIVPzYUFNHt562wRDDt0SQiSEVpdp55WufYGA09wsJpF8WxdCaN9NW45q6ep/v5gpu6R8LMieAcYMAMcD8GkpsBMOHHsE+gwdFO8yOswfIwyv1bsZEAC+9dOY+46hNdoTCSHEfpitfcNQdLVt81QAqS7WkxCaIpb2wd9vGus6PPgDABFXAu+h+Z/5Y+9dkuZPMabC5hkAzQAw0ula20sZBnoN6hev9F0SMhkRg+HV/Eign/l2yCZbIUQCaPPTbv7Stb8D4Xa3ikkUm2obEbP13RBWRJyWkj7q7tOOdPwApqwFwUNh8AxqngxMA5DhdI7WZAzIxLBJR7uVznGDGhX6hrTfBqi+bYKRnLMkIUS30uYEoPil9b6QJ/IeelB3wNpQFDs1n/qX5vU+Nu+scZdqTQLgvMWLjS839x/HxHkE+wwGHQeNmwkHjzoE/Q85SFd47TIiCkM1dwZkMKr7qz7zDqOkftJDCJH89rveee+StdNYoRRJsgu9K6KWjS31IbDGtn9ew9jR65wJ/QNErrf9y/lDcJBtIJ8YJwPIBzDQyfiHTZ6AlN7pToZ0lcHAiB2m9mYMO/08e+4xRpHmNEII0ab9Duo3zBi9jIG73Sgm3qobw1oHf4OUnWb4c+Mx+ANAxey8rVUFeX+tLMz7RWX18iFK0URi3ALQawCiXYmtTAMpvdIcqjQ+LAKiSn9PAMOms7QnEUKI/WjXxU4gwCr1hHWlYEzTXVC81Iaj2Km55W8vr7pl7lmTEnIyNfbeJWk+n3EcAXkgnAnGkR15f0qfDBx23Hhd5blmaL1CRkTvYlejwV8FJhkHa00ihBD70e7VzvnlawcjhncAdLvnmN145j/FY75x79kTfqQ1iYOyFwYPh03TAT4ZwBQ0HxPcqj4HDMSBx4xypTad+jcp9NfcDyBqoOnWSarHPV0jhEgsHbrduWs/wMsAvJrqcV3MtrG1PgRL465/v2l8lx71Hxg4f7TeJQZNRhS/5OvL5glEagaaGxGNwV4/OwMPH4aBhw2LS31O6hNWGNygfyNgU7byBIhiWhMJIUQbOrzfaV5w3dnE/E8A+rumaMYMfNvQhLDGdr9epRr8vTMPm5t36FZtSVw2ccErQ5ThmQHiGcTIB9DvwGNGoc8Bju4pjAs3TgcEgO0eGjdvAr2nPZEQQrSiUxue55euuxLgh5wuxm3bG8NoiOi7CDMNFUnxeI+5+4yxH2lLEm+BgJqUeeKkw0+c+KQ/PTXpHxf1WYRDavRPAKr91in3HON5RXsiIYRoRafWOm/MP+phBu5yuhg3VTfpHfwNRVaa1ze1Ww/+ABAI2KsKcyt96amb412KE9w6BpOY9nsGhBBC6NTpm5035Y/+DTPPcbIYt9SEIqgPa7zyVxRLM3HKXaePeUtbkgRDLnYc1IldO8RYJgBCiPjq0m6nm6YfPQ+MiwEkzWammlAENaEuPfLeJo+ipgwyJs09K6tUW5LE1Oq5EsnEdmsNgJE85yULIbqlLm93vnH66CcI+AmAJgfq0YYB7NQ8+HsNc0c/yzPyznMn9MTNXfXxLsAJSnsfwGZsYJsriYQQohWOPO90Q/7o52xl5wH4yol4OlQ3hlGrcfD3m8Ya00gd9pvzx32jLUlC424xASD3NgF851ImIYRokWMPPM/JHfNWjNR4Bl50KqYTbGZ8W9+kbcMfEXGazyy575yJY+afNapOS5KkoLrFn91waQJggLvNY6FCiOTkaMeTW/KO3H5j3lFngGk2gLg3vYnEbGyubUJI03P+HqUaUwxv/rwzJxRqSZBEGLwl3jU4wWO7cwvANs2PXUkkhBCtcLzlGRHxjdOPKoKi48CodDp+e9WGo9hS3wRLw+E+BCDVY5b1Tuk9ZP45x5Q5niAJEeGTeNfgBNOFY5qiCrG7j6Tt+jMJIUTrtO3cvjH3qLeZ+dh7gx9eAPD9APrryrWnmM3Y3hhGOGZpie8zza1+hfPvOmvC61oSJCumj917il4fr54fmx+IKa7Rn0UIIdqm9dEtImIAT859af3Lhid6F4EvAuDRkYsZqAtHUROKaBmGTENFfMq4b97Z42/VED7pmSr2UcxO+u7Q8Fn6bwFYhB66UVQIkUj0nnqyyy2njvzupvyjLleKRjKjGA4/MhiKWdhS14SdGgZ/j6JQus+zqE/fut4y+Ldu0WEpXwK0Kd51dAUx4HdnArBcexIhhNgP1/qe7Wne0o8OILKvB/gSAL07GycSs7EzHEEo6vy6rddUdV5lLPSfOe43ASIX7gwnv4vXR/5GwM/iXUdn+WOE4bV6VzEYwI702IR7Rnvf0ZpICCH2Iy4TgN0C5Z/70yIN+WzQBWCcjXbeHgjHbNSGI2hyeOA3FFkepdZ4vcbcuaeNW+xo8B7g4vWRSwn4Y7zr6KzMkMLARr2LYlED4VsnKekCKISIu7i2bw1MPSQE4HkAz98V/GCQxzb+l8EzFOFEBtL3fK3NQGMkhvpIFBHLuQtyj2GETeL1hkF/8r89oSQQkDPaO4tjVpBMgxHniWVnpUX0lx1S3L0PhxJCJI2E/KB+ZNUqT021PxukpsbYyqtrik2sj8bSuYuP9BEBJqmQofClR6kyn02LAueMf9ehsgWAS9ZH3gQwOd51dJTBwIgdpvZfiB1++9K7jzEf05xGCCH2KyEnAC35/eJ3hzb47Wlk87EW4WibqRcDqWA71WJKAdhLRDEiDgMqpMBNiqgG4E0w1GrT4uWed8a/JVf4el3ySeTXIDwc7zo6qk9YYXCD5uV/xdHoJOWXPSVCiESQNBMAkRwu/5R7x+zoZgAp8a6lIw6uNZAa0/vrUOdD2Z3jVJ7WJEII0U6uPAYoeo5Fh1ENA/+Idx0d4bMIKZoHfwYQRewGrUmEEKIDZAIgHGfDngsgaW61ZIZI+1JYg9dac884efRPCJE4ZAIgHPfnkf5PwfhnvOtoD49N6BXR+2vQfPWPX2tNIoQQHSQTAKEFE98JIBrvOvanXxOBNB9h0OjhdXeP97ypN4sQQnSMTACEFo+P9K0DUBzvOtrisQi9w3p/BSxibiR1ttYkQgjRCTIBEPpYntsB+jreZbRmUKPSfu+/zoM/3zue1mtOI4QQHSYTAKHNn0ZRHZFdEO86WpIRUUiP6h3+QwbXjBunLtWaRAghOkkmAEKrx0b4/gPgoXjXsSeDgUGNegd/i5jrPdbJ5xM5f1KVEEI4QCYAQrs0eK4F8Ha86wCaO18NblAwbX0TAAZQ58Pc+cd4V2pLIoQQXSSdAIUrfrUhNIJZrQDQP551uHHiX73Xfv2O8eZJWpMIIUQXyQqAcMVjI/wbbIVTAdTHq4a0KGkf/Bu9/JkaZ0zVmkQIIRwgEwDhmicO81Yx0VkAwm7n9lqEofWG1hxNHt6KnWq0HPYjhEgGcgtAuO6S9aEzAfUUXDowyGsRDq41YGps+NNk8padfjV6wWiq1pdFCCGcIysAwnV/Gun/rwKmAdiuO5fXJhxUp7QO/vUeewPXqkNk8BdCJBNZARBxc9Gn4THKpucBDNMR328RDqwzYGpakGcA9V4i4m3NAAADBklEQVT7NWOcMU2W/YUQyUYmACKufr6ee/kQexTg85yMmxYlHFBvwNB05W8p2DU+Dtwz1rhTTwYhhNBLJgAi/pjpV+ujhUy4B4C/q+H6hxT6NSlth/yETN7Z6LHy7hnrXa0ngxBC6CcTAJEwLvkkdCiBSpjo1M6832MTBjcopGlq8WsRc50P/xg3Vl0oHf6EEMlOJgAi4Vz6SfhcJprPwGHtfU/viMLABqVlyZ8BNHp5TTimzroniz5zPoMQQrhPJgAiIQWY1VcbIj9mUADAUa29zh9rbu6TGnP+R5kBNHh5fdhrXzJvtGe54wmEECKOZAIgElrzRCB8GrNxMYhPBeADAJ9F6NdE6BVx/knWiMGRJoNeazTougVj6QPHEwghRAKQCYBIGr9ay5m2N/o//Rvpqv4RYzTZzvz8MoCogVDE5LUx5oVzx5tPOBFXCCESmUwARFK69z1O22HjIkV8umnzkR6LBpoMP3HbP9NMgEWIRhXvtAx8GSW8abNaNG8crXWrdiGESAQyARDdyg2r+DCPGRsBRf2Yjf4g2w+bN9sK2wj2t7bX88n8UVQX7zqFEEIIIYQQQgghhBBCCCGEEEIIIYQQQgghhBBCCCGEEEIIIYQQQgghhBBCCCGEEEIIIYQQQgghhBBCCCGEEEIIIYQQQgghhBBCCCGEEEIIIYQQQgghhBBCCCGEEEIIIYQQQgghhBBCCCGEEEIIIYQQQgghhBBCCCGEEEIIIYQQQgghhBBCCCGEEEIIIYQQQgghhBBCCCGEEEIIIYQQQgghhBBCCCGEEEIIIYQQQgghhBBCCCGEEEIIIYQQQgghhBBCCCGEEEIIIYQQQgghhBBCCCGEEEIIIYQQQgghhBBCCCGEEEIIIYQQQgghhBBCCCGEEEIIIYQQQgghhBBCCCGEEEIIIYQQQgghhBBCCCGEEEIIIYQQQgghhBBCCCGEEEIIIYQQQgghhBBCCCGEEEIIIYQQQgghhBBCCCGEEEIIIYQQQgghhBBCCCGEEEIIIYQQQgghEsn/B4Uyu3+Gyl+NAAAAAElFTkSuQmCC;" vertex="1" parent="1">
          <mxGeometry x="532" y="474" width="70" height="70" as="geometry" />
        </mxCell>
      </root>
    </mxGraphModel>
  </diagram>
</mxfile>
